<svg width="48" height="48" viewBox="0 0 48 48" fill="none" xmlns="http://www.w3.org/2000/svg">
<path d="M8.99998 14.9998L11.98 17.9798L17.98 11.9798L15 8.99977C14.16 8.15977 13.08 7.75977 12 7.75977C10.92 7.75977 9.83998 8.15977 8.99998 8.99977C7.33998 10.6598 7.33998 13.3398 8.99998 14.9998Z" fill="#FDC417"/>
<path opacity="0.4" d="M11.9801 17.9805L35.0001 41.0005C36.6601 42.6605 39.3401 42.6605 41.0001 41.0005C42.6601 39.3405 42.6601 36.6605 41.0001 35.0005L17.9801 11.9805L11.9801 17.9805Z" fill="#FDC417"/>
<path d="M28.1 7.00003L27.28 4.22003C27.2 3.96003 27.28 3.68003 27.46 3.48003C27.64 3.28003 27.96 3.20003 28.22 3.28003L31 4.10003L33.78 3.28003C34.04 3.20003 34.32 3.28003 34.52 3.46003C34.72 3.66003 34.78 3.94003 34.7 4.20003L33.9 7.00003L34.72 9.78003C34.8 10.04 34.72 10.32 34.54 10.52C34.34 10.72 34.06 10.78 33.8 10.7L31 9.90003L28.22 10.72C28.14 10.74 28.08 10.76 28 10.76C27.8 10.76 27.62 10.68 27.46 10.54C27.26 10.34 27.2 10.06 27.28 9.80003L28.1 7.00003Z" fill="#FDC417"/>
<path d="M36.1 19L35.28 16.22C35.2 15.96 35.28 15.68 35.46 15.48C35.66 15.28 35.94 15.22 36.2 15.3L39 16.1L41.78 15.28C42.04 15.2 42.32 15.28 42.52 15.46C42.72 15.66 42.78 15.94 42.7 16.2L41.9 19L42.72 21.78C42.8 22.04 42.72 22.32 42.54 22.52C42.34 22.72 42.06 22.78 41.8 22.7L39.02 21.88L36.24 22.7C36.18 22.72 36.1 22.72 36.02 22.72C35.82 22.72 35.64 22.64 35.48 22.5C35.28 22.3 35.22 22.02 35.3 21.76L36.1 19Z" fill="#FDC417"/>
<path d="M6.10007 28.9999L5.28007 26.2199C5.20007 25.9599 5.28007 25.6799 5.46007 25.4799C5.66007 25.2799 5.94007 25.2199 6.20007 25.2999L8.98007 26.1199L11.7601 25.2999C12.0201 25.2199 12.3001 25.2999 12.5001 25.4799C12.7001 25.6799 12.7601 25.9599 12.6801 26.2199L11.8601 28.9999L12.6801 31.7799C12.7601 32.0399 12.6801 32.3199 12.5001 32.5199C12.3001 32.7199 12.0201 32.7799 11.7601 32.6999L8.98007 31.8799L6.20007 32.6999C6.14007 32.7199 6.06007 32.7199 5.98007 32.7199C5.78007 32.7199 5.60007 32.6399 5.44007 32.4999C5.24007 32.2999 5.18007 32.0199 5.26007 31.7599L6.10007 28.9999Z" fill="#FDC417"/>
</svg>
