<svg width="40" height="40" viewBox="0 0 40 40" fill="none" xmlns="http://www.w3.org/2000/svg">
<rect width="40" height="40" rx="8" fill="#373430"/>
<path d="M10 10H11.74C12.82 10 13.67 10.93 13.58 12L12.75 21.96C12.61 23.59 13.9 24.99 15.54 24.99H26.19C27.63 24.99 28.89 23.81 29 22.38L29.54 14.88C29.66 13.22 28.4 11.87 26.73 11.87H13.82M17 16H29M25.5 28.75C25.5 29.4404 24.9404 30 24.25 30C23.5596 30 23 29.4404 23 28.75C23 28.0596 23.5596 27.5 24.25 27.5C24.9404 27.5 25.5 28.0596 25.5 28.75ZM17.5 28.75C17.5 29.4404 16.9404 30 16.25 30C15.5596 30 15 29.4404 15 28.75C15 28.0596 15.5596 27.5 16.25 27.5C16.9404 27.5 17.5 28.0596 17.5 28.75Z" stroke="#F9FAFB" stroke-width="1.5" stroke-miterlimit="10" stroke-linecap="round" stroke-linejoin="round"/>
</svg>
