<svg width="51" height="30" viewBox="0 0 51 30" fill="none" xmlns="http://www.w3.org/2000/svg">
<path fill-rule="evenodd" clip-rule="evenodd" d="M2.00577 16.3486C2.69095 16.3486 3.24641 16.9041 3.24641 17.5893L3.24642 23.5515C3.24642 25.6071 4.91277 27.2734 6.96832 27.2734H31.9181C33.9737 27.2734 35.64 25.6071 35.64 23.5515V19.1987C35.64 17.6247 36.916 16.3486 38.4901 16.3486C40.0641 16.3486 41.3402 17.6247 41.3402 19.1987V23.8162C41.3402 25.7256 42.888 27.2734 44.7974 27.2734C46.7067 27.2734 48.2546 25.7256 48.2546 23.8162V17.5893C48.2546 16.9041 48.81 16.3486 49.4952 16.3486C50.1804 16.3486 50.7358 16.9041 50.7358 17.5893V23.8162C50.7358 27.0959 48.0771 29.7547 44.7974 29.7547C41.5176 29.7547 38.8589 27.096 38.8589 23.8162V19.1987C38.8589 18.995 38.6938 18.8299 38.4901 18.8299C38.2864 18.8299 38.1213 18.995 38.1213 19.1987V23.5515C38.1213 26.9774 35.344 29.7547 31.9181 29.7547H6.96832C3.5424 29.7547 0.765153 26.9774 0.765147 23.5515L0.765137 17.5893C0.765136 16.9041 1.32059 16.3486 2.00577 16.3486Z" fill="#373430"/>
<g clip-path="url(#clip0_348_3787)">
<path d="M24.2981 4.77246H17.775V13.0807C17.3388 12.8458 16.6728 12.888 16.0446 13.2431C15.1721 13.7355 14.7079 14.6397 15.0056 15.2628C15.3033 15.8858 16.2524 15.9927 17.1249 15.5004C17.854 15.0885 18.3316 14.3889 18.3279 13.8094V6.29974H23.8205V13.0636C23.3843 12.8247 22.7171 12.8709 22.0852 13.2207C21.2127 13.713 20.7485 14.6173 21.0463 15.2416C21.344 15.866 22.293 15.9703 23.1655 15.4779C23.8946 15.0674 24.3358 14.3691 24.2896 13.787L24.2981 4.77246Z" fill="#373430"/>
</g>
<g clip-path="url(#clip1_348_3787)">
<path d="M45.9763 4.14962L42.1413 6.36376C42.133 6.36851 42.1235 6.37029 42.1148 6.3687C42.1062 6.36712 42.099 6.36229 42.095 6.35529L42.0276 6.23865C42.0236 6.23164 42.023 6.22304 42.0259 6.21473C42.0289 6.20641 42.0352 6.19907 42.0434 6.19431L45.5673 4.15982C45.3667 4.04586 45.2329 3.77238 45.2416 3.43651C45.2532 2.97025 45.5347 2.56322 45.8692 2.52693C46.2036 2.49064 46.4661 2.8396 46.4536 3.30571C46.444 3.69463 46.2253 4.00712 45.9763 4.14962Z" fill="#373430"/>
</g>
<g clip-path="url(#clip2_348_3787)">
<path d="M45.311 13.1851C44.4358 13.5604 43.7049 14.6339 44.2784 15.3942C44.8093 16.098 45.8442 15.8671 46.5346 15.3189C47.1371 14.8406 47.6172 14.1276 47.2165 13.4709C46.8246 12.8285 46.0026 12.8886 45.311 13.1851Z" fill="#373430"/>
</g>
<defs>
<clipPath id="clip0_348_3787">
<rect width="13.1818" height="13.3368" fill="white" transform="translate(12.9658 4.70898)"/>
</clipPath>
<clipPath id="clip1_348_3787">
<rect width="5.83896" height="7.35786" fill="white" transform="matrix(-0.5 -0.866025 -0.866025 0.5 48.8462 5.2373)"/>
</clipPath>
<clipPath id="clip2_348_3787">
<rect width="3.72191" height="3.10159" fill="white" transform="translate(43.9819 12.7734)"/>
</clipPath>
</defs>
</svg>
