<svg width="24" height="24" viewBox="0 0 24 24" fill="none" xmlns="http://www.w3.org/2000/svg">
<mask id="path-1-inside-1_2881_49000" fill="white">
<path fill-rule="evenodd" clip-rule="evenodd" d="M15.4889 6.9525L13.7289 3.4325C12.7789 1.5225 11.2189 1.5225 10.2589 3.4325L8.49893 6.9525C8.25893 7.4425 7.61893 7.9125 7.08893 8.0025L3.89893 8.5325C1.85893 8.8725 1.38893 10.3525 2.84893 11.8125L5.32893 14.2925C5.74893 14.7125 5.97893 15.5225 5.84893 16.1025L5.13893 19.1725C4.57893 21.5925 5.87893 22.5425 8.01893 21.2725L11.0089 19.5025C11.5589 19.1825 12.4489 19.1825 12.9889 19.5025L15.9789 21.2725C18.1289 22.5425 19.4189 21.6025 18.8589 19.1725L18.1489 16.1025C18.0189 15.5225 18.2489 14.7125 18.6689 14.2925L21.1489 11.8125C22.6189 10.3525 22.1389 8.8725 20.0989 8.5325L16.9089 8.0025C16.3689 7.9125 15.7289 7.4425 15.4889 6.9525Z"/>
</mask>
<path fill-rule="evenodd" clip-rule="evenodd" d="M15.4889 6.9525L13.7289 3.4325C12.7789 1.5225 11.2189 1.5225 10.2589 3.4325L8.49893 6.9525C8.25893 7.4425 7.61893 7.9125 7.08893 8.0025L3.89893 8.5325C1.85893 8.8725 1.38893 10.3525 2.84893 11.8125L5.32893 14.2925C5.74893 14.7125 5.97893 15.5225 5.84893 16.1025L5.13893 19.1725C4.57893 21.5925 5.87893 22.5425 8.01893 21.2725L11.0089 19.5025C11.5589 19.1825 12.4489 19.1825 12.9889 19.5025L15.9789 21.2725C18.1289 22.5425 19.4189 21.6025 18.8589 19.1725L18.1489 16.1025C18.0189 15.5225 18.2489 14.7125 18.6689 14.2925L21.1489 11.8125C22.6189 10.3525 22.1389 8.8725 20.0989 8.5325L16.9089 8.0025C16.3689 7.9125 15.7289 7.4425 15.4889 6.9525Z" fill="#373430"/>
<path d="M13.7289 3.4325L12.3859 4.10051L12.3873 4.10332L13.7289 3.4325ZM15.4889 6.9525L16.8361 6.29268L16.8306 6.28168L15.4889 6.9525ZM10.2589 3.4325L8.9187 2.75887L8.91729 2.76168L10.2589 3.4325ZM8.49893 6.9525L7.15725 6.28166L7.15184 6.2927L8.49893 6.9525ZM7.08893 8.0025L7.33478 9.48223L7.34005 9.48133L7.08893 8.0025ZM3.89893 8.5325L3.65309 7.05278L3.65233 7.05291L3.89893 8.5325ZM2.84893 11.8125L1.78827 12.8732H1.78827L2.84893 11.8125ZM5.32893 14.2925L6.38959 13.2318H6.38959L5.32893 14.2925ZM5.84893 16.1025L7.31039 16.4405L7.31262 16.4306L5.84893 16.1025ZM5.13893 19.1725L6.60032 19.5107L6.60036 19.5105L5.13893 19.1725ZM8.01893 21.2725L7.25482 19.9817L7.2534 19.9826L8.01893 21.2725ZM11.0089 19.5025L10.2546 18.2059L10.2448 18.2117L11.0089 19.5025ZM12.9889 19.5025L12.2242 20.7929L12.2248 20.7933L12.9889 19.5025ZM15.9789 21.2725L15.2148 22.5633L15.216 22.564L15.9789 21.2725ZM18.8589 19.1725L20.3206 18.8357L20.3204 18.8345L18.8589 19.1725ZM18.1489 16.1025L16.6852 16.4306L16.6875 16.4405L18.1489 16.1025ZM21.1489 11.8125L20.0919 10.7482L20.0883 10.7518L21.1489 11.8125ZM20.0989 8.5325L20.3455 7.05291L20.3448 7.05278L20.0989 8.5325ZM16.9089 8.0025L16.6623 9.48209L16.6631 9.48222L16.9089 8.0025ZM12.3873 4.10332L14.1473 7.62332L16.8306 6.28168L15.0706 2.76168L12.3873 4.10332ZM11.5992 4.10613C11.7705 3.76528 11.9264 3.59652 12.0141 3.52581C12.0921 3.46289 12.0836 3.5 11.9977 3.5C11.9114 3.5 11.9013 3.46256 11.977 3.52386C12.0627 3.59323 12.2168 3.76051 12.3859 4.10051L15.072 2.76449C14.4886 1.59153 13.4613 0.5 11.9977 0.5C10.5367 0.5 9.5071 1.58821 8.9187 2.75887L11.5992 4.10613ZM9.84057 7.62332L11.6006 4.10332L8.91729 2.76168L7.15729 6.28168L9.84057 7.62332ZM7.34005 9.48133C7.89928 9.38637 8.40776 9.12035 8.79609 8.83242C9.18426 8.5446 9.59168 8.13159 9.84603 7.6123L7.15184 6.2927C7.16363 6.26863 7.16311 6.27784 7.13256 6.31209C7.10379 6.34434 7.06175 6.38368 7.00928 6.42258C6.95684 6.46146 6.90636 6.49073 6.86602 6.50951C6.82312 6.52948 6.81264 6.52794 6.83781 6.52367L7.34005 9.48133ZM4.14478 10.0122L7.33478 9.48222L6.84309 6.52278L3.65309 7.05278L4.14478 10.0122ZM3.90959 10.7518C3.65631 10.4986 3.55325 10.3093 3.51684 10.211C3.48451 10.1237 3.51292 10.1381 3.49035 10.2088C3.46771 10.2797 3.43583 10.2755 3.51198 10.2238C3.59806 10.1653 3.79151 10.0711 4.14553 10.0121L3.65233 7.05291C2.37212 7.26628 1.06861 7.93056 0.632518 9.29621C0.196883 10.6604 0.872264 11.9572 1.78827 12.8732L3.90959 10.7518ZM6.38959 13.2318L3.90959 10.7518L1.78827 12.8732L4.26827 15.3532L6.38959 13.2318ZM7.31262 16.4306C7.44555 15.8375 7.38154 15.2287 7.23726 14.7247C7.09318 14.2214 6.82438 13.6666 6.38959 13.2318L4.26827 15.3532C4.25434 15.3392 4.26578 15.347 4.28886 15.3893C4.31094 15.4298 4.33446 15.4852 4.3531 15.5503C4.37174 15.6154 4.3814 15.6759 4.38428 15.7239C4.38729 15.774 4.38178 15.7899 4.38525 15.7744L7.31262 16.4306ZM6.60036 19.5105L7.31036 16.4405L4.38751 15.7645L3.67751 18.8345L6.60036 19.5105ZM7.2534 19.9826C6.83348 20.2318 6.54923 20.3136 6.40146 20.332C6.26656 20.3489 6.33076 20.3071 6.45059 20.3945C6.57062 20.4821 6.55091 20.5567 6.5262 20.4245C6.49906 20.2794 6.49054 19.9851 6.60032 19.5107L3.67755 18.8343C3.3664 20.1789 3.38643 21.8724 4.68228 22.818C5.97695 23.7627 7.59622 23.2676 8.78446 22.5624L7.2534 19.9826ZM10.2448 18.2117L7.25482 19.9817L8.78304 22.5633L11.773 20.7933L10.2448 18.2117ZM13.7536 18.2121C13.1957 17.8815 12.5564 17.7625 12.0027 17.7625C11.4476 17.7625 10.8115 17.882 10.2546 18.206L11.7633 20.799C11.7522 20.8054 11.7684 20.7943 11.8195 20.7823C11.8688 20.7706 11.9323 20.7625 12.0027 20.7625C12.0732 20.7625 12.1351 20.7706 12.1816 20.7817C12.23 20.7932 12.2411 20.8029 12.2242 20.7929L13.7536 18.2121ZM16.743 19.9817L13.753 18.2117L12.2248 20.7933L15.2148 22.5633L16.743 19.9817ZM17.3972 19.5093C17.5076 19.9883 17.4996 20.2852 17.4725 20.4317C17.4478 20.5653 17.4282 20.4878 17.5515 20.3979C17.6744 20.3083 17.7406 20.3512 17.6032 20.3338C17.4532 20.3148 17.1661 20.2316 16.7418 19.981L15.216 22.564C16.402 23.2645 18.0231 23.7667 19.3188 22.8221C20.6172 21.8756 20.6298 20.1772 20.3206 18.8357L17.3972 19.5093ZM16.6875 16.4405L17.3975 19.5105L20.3204 18.8345L19.6104 15.7645L16.6875 16.4405ZM17.6083 13.2318C17.1735 13.6666 16.9047 14.2214 16.7606 14.7247C16.6163 15.2287 16.5523 15.8375 16.6852 16.4306L19.6126 15.7744C19.6161 15.7899 19.6106 15.774 19.6136 15.7239C19.6165 15.6759 19.6261 15.6154 19.6448 15.5503C19.6634 15.4852 19.6869 15.4298 19.709 15.3893C19.7321 15.347 19.7435 15.3392 19.7296 15.3532L17.6083 13.2318ZM20.0883 10.7518L17.6083 13.2318L19.7296 15.3532L22.2096 12.8732L20.0883 10.7518ZM19.8523 10.0121C20.2065 10.0711 20.4013 10.1655 20.4887 10.2248C20.5666 10.2775 20.535 10.2826 20.5121 10.2115C20.4891 10.1399 20.5176 10.1239 20.4859 10.2093C20.4499 10.3062 20.347 10.4949 20.0919 10.7482L22.206 12.8768C23.1286 11.9604 23.8079 10.6613 23.3682 9.29349C22.9297 7.92908 21.6242 7.26603 20.3455 7.05291L19.8523 10.0121ZM16.6631 9.48222L19.8531 10.0122L20.3448 7.05278L17.1548 6.52278L16.6631 9.48222ZM14.1418 7.6123C14.3964 8.13205 14.8045 8.54572 15.1958 8.83449C15.5881 9.12395 16.0996 9.38831 16.6623 9.48209L17.1555 6.52291C17.1768 6.52645 17.1641 6.52703 17.1208 6.50708C17.0798 6.48818 17.0292 6.45901 16.977 6.42051C16.9248 6.38196 16.8831 6.34304 16.8547 6.31124C16.8245 6.27748 16.8242 6.26854 16.836 6.2927L14.1418 7.6123Z" fill="#373430" mask="url(#path-1-inside-1_2881_49000)"/>
</svg>
