<svg width="48" height="48" viewBox="0 0 48 48" fill="none" xmlns="http://www.w3.org/2000/svg">
<path d="M25.8446 16.3611C26.447 16.0439 27.1185 15.8787 27.8001 15.8799L27.8606 15.8398C28.0903 15.8404 28.3197 15.8606 28.546 15.9C29.4486 16.0488 30.2753 16.4934 30.8946 17.1631C31.8228 16.9809 32.7126 16.6419 33.5255 16.1606C33.2151 17.1142 32.5667 17.923 31.701 18.4362C32.5211 18.3385 33.3225 18.1223 34.0799 17.7946C33.5347 18.6122 32.8529 19.331 32.0639 19.9198V20.4511C32.0732 21.9944 31.7752 23.5241 31.187 24.9522C30.5988 26.3802 29.732 27.6783 28.6367 28.7715C27.5336 29.8583 26.2249 30.7169 24.7862 31.2977C23.3884 31.8678 21.892 32.1607 20.3812 32.1598H20.2502C18.0044 32.1618 15.806 31.5177 13.9199 30.3053C14.2543 30.3466 14.591 30.3666 14.9279 30.3654C16.7822 30.3525 18.5784 29.7206 20.0284 28.571C19.167 28.5515 18.3327 28.2679 17.6394 27.7591C16.9514 27.259 16.437 26.5582 16.1678 25.7541C16.4242 25.7978 16.6837 25.8213 16.9439 25.8243C17.32 25.8224 17.6936 25.7649 18.0527 25.6539C17.1167 25.477 16.274 24.9763 15.6738 24.2404C15.0663 23.5096 14.7315 22.5923 14.7263 21.6441V21.5939C15.2756 21.931 15.8974 22.1337 16.5407 22.1854C15.9753 21.8102 15.5118 21.3017 15.1918 20.7053C14.8717 20.1089 14.7049 19.4431 14.7062 18.767C14.7057 18.0391 14.8968 17.3236 15.2606 16.6919C16.3013 17.9483 17.596 18.9729 19.0607 19.6993C20.5266 20.4436 22.1343 20.8707 23.7782 20.9524C23.5679 20.0676 23.6564 19.1387 24.0299 18.3089C24.4033 17.4791 25.041 16.7946 25.8446 16.3611Z" fill="#2D9DEB"/>
</svg>
