<svg width="32" height="32" viewBox="0 0 32 32" fill="none" xmlns="http://www.w3.org/2000/svg">
<path opacity="0.4" d="M13.3198 23.9737C19.2035 23.9737 23.9732 19.204 23.9732 13.3203C23.9732 7.43665 19.2035 2.66699 13.3198 2.66699C7.43616 2.66699 2.6665 7.43665 2.6665 13.3203C2.6665 19.204 7.43616 23.9737 13.3198 23.9737Z" fill="#373430"/>
<path d="M29.2934 21.3201C29.2934 25.7201 25.7201 29.2934 21.3201 29.2934C18.6001 29.2934 16.2134 27.9334 14.7734 25.8668C20.5868 25.2134 25.2134 20.5868 25.8668 14.7734C27.9334 16.2134 29.2934 18.6001 29.2934 21.3201Z" fill="#373430"/>
<path d="M15.2665 12.9469L12.0665 11.8269C11.7465 11.7202 11.6798 11.6935 11.6798 11.2269C11.6798 10.8802 11.9198 10.6002 12.2265 10.6002H14.2265C14.6532 10.6002 14.9998 10.9869 14.9998 11.4669C14.9998 12.0135 15.4532 12.4669 15.9998 12.4669C16.5465 12.4669 16.9998 12.0135 16.9998 11.4669C16.9998 9.93354 15.8132 8.68021 14.3332 8.61354V8.54687C14.3332 8.00021 13.8798 7.54688 13.3332 7.54688C12.7865 7.54688 12.3332 7.98687 12.3332 8.54687V8.61354H12.2132C10.8132 8.61354 9.6665 9.78688 9.6665 11.2402C9.6665 12.5069 10.2265 13.3202 11.3865 13.7202L14.5998 14.8402C14.9198 14.9469 14.9865 14.9735 14.9865 15.4402C14.9865 15.7869 14.7465 16.0669 14.4398 16.0669H12.4398C12.0132 16.0669 11.6665 15.6802 11.6665 15.2002C11.6665 14.6535 11.2132 14.2002 10.6665 14.2002C10.1198 14.2002 9.6665 14.6535 9.6665 15.2002C9.6665 16.7335 10.8532 17.9869 12.3332 18.0535V18.1335C12.3332 18.6802 12.7865 19.1335 13.3332 19.1335C13.8798 19.1335 14.3332 18.6802 14.3332 18.1335V18.0669H14.4532C15.8532 18.0669 16.9998 16.8935 16.9998 15.4402C16.9998 14.1735 16.4265 13.3602 15.2665 12.9469Z" fill="#373430"/>
</svg>
