<svg width="32" height="32" viewBox="0 0 32 32" fill="none" xmlns="http://www.w3.org/2000/svg">
<path d="M15.9598 30.3334C8.06646 30.3334 1.62646 23.9067 1.62646 16.0001C1.62646 8.09342 8.06646 1.66675 15.9598 1.66675C23.8531 1.66675 30.2931 8.09342 30.2931 16.0001C30.2931 23.9067 23.8665 30.3334 15.9598 30.3334ZM15.9598 3.66675C9.1598 3.66675 3.62646 9.20008 3.62646 16.0001C3.62646 22.8001 9.1598 28.3334 15.9598 28.3334C22.7598 28.3334 28.2931 22.8001 28.2931 16.0001C28.2931 9.20008 22.7598 3.66675 15.9598 3.66675Z" fill="#373430"/>
<path d="M14.08 22.6533C13.4933 22.6533 12.9333 22.5067 12.44 22.2267C11.2933 21.56 10.6533 20.2533 10.6533 18.5467V14.08C10.6533 12.3733 11.28 11.0667 12.4267 10.4C13.5733 9.73332 15.0267 9.83999 16.5067 10.6933L20.3733 12.92C21.8533 13.7733 22.6667 14.9733 22.6667 16.3067C22.6667 17.6267 21.8533 18.84 20.3733 19.6933L16.5067 21.92C15.68 22.4133 14.84 22.6533 14.08 22.6533ZM14.08 11.96C13.84 11.96 13.6133 12.0133 13.44 12.12C12.9333 12.4133 12.6533 13.12 12.6533 14.08V18.5467C12.6533 19.4933 12.9333 20.2133 13.44 20.4933C13.9333 20.7867 14.6933 20.6667 15.52 20.2L19.3867 17.9733C20.2133 17.4933 20.68 16.8933 20.68 16.32C20.68 15.7467 20.2 15.1467 19.3867 14.6667L15.52 12.44C14.9867 12.12 14.4933 11.96 14.08 11.96Z" fill="#373430"/>
</svg>
