<svg width="65" height="64" viewBox="0 0 65 64" fill="none" xmlns="http://www.w3.org/2000/svg">
<path d="M32.5 39.3333C31.4067 39.3333 30.5 38.4267 30.5 37.3333V24C30.5 22.9067 31.4067 22 32.5 22C33.5933 22 34.5 22.9067 34.5 24V37.3333C34.5 38.4267 33.5933 39.3333 32.5 39.3333Z" fill="#FFD500"/>
<path d="M32.4987 48.0002C32.3387 48.0002 32.152 47.9735 31.9654 47.9468C31.8054 47.9202 31.6454 47.8668 31.4854 47.7868C31.3254 47.7335 31.1654 47.6535 31.0054 47.5468C30.872 47.4402 30.7387 47.3335 30.6054 47.2268C30.1254 46.7202 29.832 46.0268 29.832 45.3335C29.832 44.6402 30.1254 43.9468 30.6054 43.4402C30.7387 43.3335 30.872 43.2268 31.0054 43.1202C31.1654 43.0135 31.3254 42.9335 31.4854 42.8802C31.6454 42.8002 31.8054 42.7468 31.9654 42.7202C32.312 42.6402 32.6854 42.6402 33.0054 42.7202C33.192 42.7468 33.352 42.8002 33.512 42.8802C33.672 42.9335 33.832 43.0135 33.992 43.1202C34.1254 43.2268 34.2587 43.3335 34.392 43.4402C34.872 43.9468 35.1654 44.6402 35.1654 45.3335C35.1654 46.0268 34.872 46.7202 34.392 47.2268C34.2587 47.3335 34.1254 47.4402 33.992 47.5468C33.832 47.6535 33.672 47.7335 33.512 47.7868C33.352 47.8668 33.192 47.9202 33.0054 47.9468C32.8454 47.9735 32.6587 48.0002 32.4987 48.0002Z" fill="#FFD500"/>
<path d="M48.6599 59.0934H16.3399C11.1399 59.0934 7.1666 57.2001 5.13994 53.7867C3.13994 50.3734 3.4066 45.9734 5.93994 41.4134L22.0999 12.3467C24.7666 7.54674 28.4466 4.90674 32.4999 4.90674C36.5533 4.90674 40.2333 7.54674 42.8999 12.3467L59.0599 41.4401C61.5933 46.0001 61.8866 50.3734 59.8599 53.8134C57.8333 57.2001 53.8599 59.0934 48.6599 59.0934ZM32.4999 8.90674C29.9933 8.90674 27.5399 10.8267 25.5933 14.2934L9.45994 43.3867C7.6466 46.6401 7.35327 49.6267 8.6066 51.7867C9.85994 53.9467 12.6333 55.1201 16.3666 55.1201H48.6866C52.4199 55.1201 55.1666 53.9467 56.4466 51.7867C57.7266 49.6267 57.4066 46.6667 55.5933 43.3867L39.4066 14.2934C37.4599 10.8267 35.0066 8.90674 32.4999 8.90674Z" fill="#FFD500"/>
</svg>
