<svg width="48" height="48" viewBox="0 0 48 48" fill="none" xmlns="http://www.w3.org/2000/svg">
<path d="M13.42 8.27996L13.56 15.86C13.58 16.9 12.9199 18.28 12.0799 18.9L7.11995 22.66C3.93995 25.06 4.45997 28 8.25997 29.2L14.7199 31.22C15.7999 31.56 16.9399 32.74 17.2199 33.84L18.76 39.72C19.98 44.36 23.02 44.82 25.54 40.74L29.06 35.04C29.7 34 31.22 33.22 32.42 33.28L39.0999 33.62C43.8799 33.86 45.24 31.1 42.12 27.46L38.16 22.86C37.42 22 37.08 20.4 37.42 19.32L39.4399 12.86C40.6199 9.05995 38.4999 6.95998 34.7199 8.19998L28.8199 10.14C27.8199 10.46 26.3199 10.24 25.4799 9.61996L19.3199 5.17996C15.9999 2.77996 13.34 4.17997 13.42 8.27996Z" fill="#FDC417"/>
<path opacity="0.4" d="M5.1203 40.9403L11.1804 34.8803C11.7604 34.3003 12.7204 34.3003 13.3004 34.8803C13.8804 35.4603 13.8804 36.4203 13.3004 37.0003L7.24029 43.0603C6.94029 43.3603 6.56036 43.5003 6.18036 43.5003C5.80036 43.5003 5.4203 43.3603 5.1203 43.0603C4.5403 42.4803 4.5403 41.5203 5.1203 40.9403Z" fill="#FDC417"/>
</svg>
