<svg width="48" height="48" viewBox="0 0 48 48" fill="none" xmlns="http://www.w3.org/2000/svg">
<path opacity="0.4" d="M5.50012 37.2996C4.68012 37.2996 4.00012 36.6196 4.00012 35.7996V24.3996C3.90012 18.9796 5.92013 13.8596 9.68013 10.0196C13.4401 6.19961 18.4801 4.09961 23.9001 4.09961C34.9801 4.09961 44.0001 13.1196 44.0001 24.1996V35.5996C44.0001 36.4196 43.3201 37.0996 42.5001 37.0996C41.6801 37.0996 41.0001 36.4196 41.0001 35.5996V24.1996C41.0001 14.7796 33.3401 7.09961 23.9001 7.09961C19.2801 7.09961 15.0001 8.87961 11.8201 12.1196C8.62012 15.3796 6.92012 19.7196 7.00012 24.3596V35.7796C7.00012 36.6196 6.34012 37.2996 5.50012 37.2996Z" fill="#FDC417"/>
<path d="M11.88 24.9004H11.62C7.42 24.9004 4 28.3204 4 32.5204V36.2804C4 40.4804 7.42 43.9004 11.62 43.9004H11.88C16.08 43.9004 19.5 40.4804 19.5 36.2804V32.5204C19.5 28.3204 16.08 24.9004 11.88 24.9004Z" fill="#FDC417"/>
<path d="M36.38 24.9004H36.12C31.92 24.9004 28.5 28.3204 28.5 32.5204V36.2804C28.5 40.4804 31.92 43.9004 36.12 43.9004H36.38C40.58 43.9004 44 40.4804 44 36.2804V32.5204C44 28.3204 40.58 24.9004 36.38 24.9004Z" fill="#FDC417"/>
</svg>
