<svg width="200" height="404" viewBox="0 0 200 404" fill="none" xmlns="http://www.w3.org/2000/svg">
<g opacity="0.5" clip-path="url(#clip0_251_10765)">
<path d="M74.3955 106.395C62.6049 99.3468 41.3816 103.01 33.1047 113.53C20.4004 129.697 19.8687 149.867 19.3317 169.4C19.2356 172.715 19.1468 176.139 18.9805 179.478L18.8907 181.478C18.4707 190.883 17.9935 201.551 13.8195 210.275C10.2815 217.675 0.980573 234.099 -5.14956 237.516C-9.64895 240.017 -15.912 238.637 -21.9779 237.304C-26.1684 236.382 -30.1246 235.508 -33.5941 235.796L-33.7609 235.81C-45.6273 236.801 -45.6273 236.801 -50.557 233.335C-52.0425 232.278 -53.9169 230.951 -56.6177 229.264C-59.1002 227.691 -61.7073 226.323 -64.413 225.176C-65.2966 224.842 -66.1401 224.411 -66.9276 223.89C-68.4085 222.759 -68.8373 220.777 -70.2814 214.204C-74.5665 194.779 -60.7892 177.207 -47.4693 160.216C-30.6988 138.825 -13.365 116.712 -32.4423 90.9485C-34.9996 87.4416 -38.0356 84.3098 -41.4619 81.6447C-50.6579 74.6246 -61.6147 72.7268 -73.1798 76.223C-90.1221 81.3178 -105.894 97.4323 -112.412 116.318C-127.437 159.85 -115.12 200.745 -99.9983 242.292C-86.2608 280.054 -64.2767 304.351 -44.747 324.161C-43.431 325.515 -42.0203 326.773 -40.5255 327.927C-31.6485 334.703 -23.9919 333.409 -14.2729 331.789C-10.3146 331.047 -6.31975 330.513 -2.30494 330.191C2.71244 329.843 7.91992 330.961 12.961 332.041C21.1241 333.85 28.91 335.474 35.8466 331.29C50.5451 322.4 45.8102 303.124 41.6334 286.136C39.7288 278.216 37.8734 270.824 38.0129 264.891C38.5671 241.35 61.3362 218.342 82.2647 211.622C88.8064 209.516 98.9998 208.529 109.78 207.537C127.687 205.792 147.92 203.816 157.11 196.205C161.41 192.608 163.452 189.407 163.378 186.298C163.322 183.759 161.779 181.353 158.629 178.949C153.483 175.02 144.498 171.523 134.984 167.804C123.362 163.265 110.193 158.126 100.972 151.087C97.097 148.291 93.8649 144.699 91.4929 140.553C89.1897 136.208 87.9667 131.602 86.7675 127.117C84.8175 119.731 82.9733 112.749 76.559 107.852C75.8668 107.325 75.1444 106.838 74.3955 106.395ZM91.0486 140.796C93.4706 145.017 96.7768 148.666 100.74 151.492C110.018 158.575 123.227 163.731 134.879 168.28C144.354 171.983 153.302 175.477 158.398 179.354C161.392 181.64 162.872 183.908 162.921 186.286C162.981 189.176 160.958 192.25 156.809 195.768C147.778 203.307 127.575 205.227 109.789 206.949C98.963 207.983 88.7263 208.976 82.1476 211.08C61.0499 217.852 38.1023 241.06 37.5484 264.821C37.4105 270.82 39.2323 278.289 41.172 286.198C45.3067 303.037 50.0019 322.127 35.6056 330.808C28.8529 334.887 21.1905 333.254 13.0641 331.499C7.99413 330.422 2.74145 329.297 -2.34997 329.639C-6.38912 329.99 -10.4073 330.548 -14.3884 331.312C-23.9695 332.922 -31.5334 334.196 -40.2386 327.551C-41.7128 326.41 -43.1062 325.17 -44.409 323.837C-63.8978 304.058 -85.88 279.776 -99.5404 242.15C-114.627 200.694 -126.925 159.892 -111.921 116.472C-105.456 97.7408 -89.821 81.7546 -73.0272 76.7016C-61.6355 73.2799 -50.8327 75.1249 -41.7675 82.0451C-38.3862 84.6629 -35.3873 87.7402 -32.8578 91.1875C-24.4125 102.601 -22.4654 114.265 -26.9088 126.871C-30.893 138.146 -39.5278 149.169 -47.8819 159.824C-61.2767 176.912 -75.1537 194.616 -70.8043 214.244C-68.7053 223.606 -68.631 223.831 -64.6302 225.579C-61.9464 226.716 -59.3605 228.072 -56.8984 229.632C-54.1832 231.317 -52.3478 232.627 -50.8622 233.684C-45.8223 237.26 -45.8223 237.26 -33.742 236.278L-33.5834 236.256C-30.1859 235.979 -26.2605 236.842 -22.1152 237.756C-15.957 239.12 -9.58715 240.53 -4.93888 237.935C1.30507 234.438 10.6808 217.915 14.2418 210.468C18.4619 201.649 18.9395 190.931 19.3599 181.474L19.4497 179.474C19.6035 176.151 19.6985 172.719 19.7927 169.389C20.3332 149.937 20.887 129.823 33.4417 113.852C41.5794 103.497 62.4668 99.9009 74.0731 106.834C74.8009 107.272 75.5046 107.749 76.1813 108.262C82.4483 113.046 84.2746 119.95 86.2129 127.249C87.2768 131.941 88.9003 136.489 91.0486 140.796Z" fill="#FBFBFB"/>
<path d="M51.2768 180.206C51.3483 180.925 51.6813 181.594 52.2126 182.085C53.358 182.959 55.2701 182.117 58.1589 180.843C62.1272 178.959 66.328 177.608 70.6521 176.826L72.2386 176.563C78.4073 175.556 81.23 175.098 81.5191 173.922C81.6592 173.383 81.2728 172.803 80.2583 172.029C78.8025 171.003 77.2842 170.068 75.7123 169.231C74.7497 168.688 73.8263 168.078 72.9488 167.406C65.8554 161.991 62.9717 153.504 60.8743 147.312C59.6437 143.682 58.6622 140.812 57.2386 139.725C56.961 139.502 56.6337 139.348 56.2844 139.277C55.9351 139.206 55.5739 139.22 55.2314 139.318C46.2721 141.674 49.4553 170.345 51.2768 180.206ZM55.3716 139.813C55.6373 139.738 55.9174 139.728 56.1882 139.783C56.4589 139.839 56.7122 139.96 56.9267 140.134C58.2276 141.127 59.2013 143.94 60.3895 147.472C62.511 153.734 65.4208 162.306 72.6369 167.814C73.5355 168.499 74.48 169.12 75.4639 169.675C77.0124 170.505 78.5093 171.427 79.9464 172.437C80.7646 173.062 81.1027 173.501 81.018 173.799C80.8097 174.648 77.3607 175.197 72.1437 176.077L70.5634 176.332C66.1951 177.117 61.951 178.478 57.9424 180.38C55.2208 181.587 53.412 182.379 52.512 181.692C52.0839 181.28 51.8212 180.725 51.7732 180.133C49.5243 167.863 47.4185 141.903 55.3716 139.813Z" fill="#FBFBFB"/>
<path d="M56.3646 173.304C59.2281 175.49 66.353 173.79 67.9872 171.65C68.1499 171.465 68.2695 171.246 68.3375 171.009C68.4054 170.773 68.42 170.524 68.3802 170.281C68.3404 170.038 68.2472 169.806 68.1073 169.603C67.9674 169.401 67.7842 169.231 67.5711 169.107C63.4118 165.803 60.9863 159.735 59.2208 155.297C58.1695 152.671 57.4211 150.767 56.5948 150.136C56.4837 150.043 56.3541 149.975 56.2147 149.935C56.0753 149.896 55.9292 149.886 55.7859 149.907C55.5787 149.96 55.3852 150.056 55.2185 150.19C55.0517 150.323 54.9154 150.491 54.8188 150.682C52.1275 154.835 53.5903 168.406 55.4717 172.235C55.6771 172.659 55.9837 173.026 56.3646 173.304ZM55.4535 151.089C55.7155 150.745 55.8562 150.646 55.9283 150.636C56.0004 150.627 56.0354 150.615 56.1827 150.727C56.8454 151.233 57.6464 153.254 58.5766 155.581C60.3744 160.096 62.836 166.269 67.1426 169.686C67.7971 170.185 67.8839 170.665 67.4515 171.215C65.9919 173.127 59.3601 174.673 56.8074 172.724C56.5214 172.512 56.2884 172.237 56.1265 171.92C54.1197 167.814 53.012 154.864 55.4535 151.089Z" fill="#FBFBFB"/>
<path d="M9.90968 255.142C9.20607 254.605 7.88873 255.177 5.63769 256.989C-2.77827 263.756 -18.0022 269.619 -33.0105 267.448C-48.1812 265.269 -56.4863 261.373 -60.937 259.282C-63.1533 258.25 -64.2583 257.729 -64.8679 258.053C-64.995 258.133 -65.1005 258.243 -65.1751 258.373C-65.2497 258.503 -65.2911 258.65 -65.2956 258.8C-65.5966 260.704 -58.0488 278.144 -40.1932 294.193L-39.4249 294.883C-37.821 296.327 -36.4337 297.581 -35.0183 298.661C-30.0603 302.446 -25.0136 304.113 -9.67976 303.364C-7.25897 303.246 -4.86782 303.235 -2.56319 303.236C4.59154 303.227 10.7627 303.218 13.1035 299.676C14.8907 296.928 14.2784 292.387 11.1814 285.367C7.76941 277.589 9.08479 268.402 9.96001 262.319C10.4908 258.418 10.8587 255.866 9.90968 255.142ZM10.8763 285.444C13.8802 292.264 14.5127 296.846 12.8109 299.466C10.5613 302.922 4.47473 302.905 -2.57712 302.915C-4.88799 302.922 -7.28108 302.919 -9.70812 303.045C-24.9472 303.788 -29.955 302.138 -34.8475 298.403C-36.2548 297.329 -37.6339 296.082 -39.2378 294.638L-40.006 293.948C-57.4203 278.288 -65.2895 260.641 -65.0037 258.842C-64.9432 258.474 -64.8251 258.37 -64.7362 258.322C-64.2568 258.067 -63.0575 258.633 -61.0833 259.558C-56.6224 261.67 -48.3049 265.55 -33.0581 267.748C-17.8114 269.946 -2.6135 263.998 5.83129 257.228C7.88978 255.566 9.1662 254.962 9.72255 255.387C10.5407 256.012 10.1322 258.752 9.66426 262.249C8.74772 268.352 7.41945 277.606 10.8763 285.444Z" fill="#FBFBFB"/>
<path d="M19.0736 239.932C18.37 239.395 17.2553 239.837 15.4813 241.431C4.77307 251.065 -11.9965 263.482 -33.8548 260.259C-41.1748 259.09 -48.3225 257.017 -55.1343 254.089C-56.9297 253.508 -58.8048 253.211 -60.6914 253.21C-63.2582 253.061 -65.9073 252.901 -67.5273 251.664C-67.7116 251.524 -67.8826 251.368 -68.038 251.197C-68.7162 250.354 -69.1737 249.356 -69.369 248.292C-69.5376 247.166 -70.0864 246.131 -70.9241 245.359C-71.4447 244.952 -72.0698 244.701 -72.7269 244.634C-73.384 244.568 -74.0464 244.688 -74.6374 244.982C-75.1701 245.271 -75.7824 245.378 -76.3821 245.289C-76.9818 245.2 -77.5366 244.918 -77.9629 244.487C-79.2582 243.317 -79.1981 241.694 -79.1352 239.984C-79.0001 238.801 -79.1291 237.603 -79.5128 236.475C-79.9936 235.443 -80.7036 234.534 -81.5887 233.817C-81.8215 233.596 -82.1025 233.433 -82.4093 233.34C-82.7162 233.248 -83.0404 233.228 -83.3561 233.282C-83.6413 233.386 -83.8975 233.557 -84.1035 233.78C-84.3096 234.002 -84.4596 234.271 -84.5412 234.563C-85.4671 236.896 -82.7139 241.856 -80.8713 245.125C-80.3214 246.1 -79.8712 246.936 -79.6021 247.516C-77.1518 252.788 -74.4992 257.71 -72.2107 261.836C-62.5472 279.236 -52.2762 293.194 -40.8217 304.499C-39.6975 305.624 -38.5038 306.678 -37.2477 307.654C-30.997 312.426 -24.0702 313.394 -7.59586 311.796C-3.55347 311.403 0.325518 311.377 4.07279 311.353C12.4605 311.29 19.0888 311.242 22.0907 307.106C24.4541 303.84 24.2715 298.295 21.5289 289.657C17.0931 275.757 18.4886 260.85 19.404 250.983C19.9336 244.895 20.3172 240.881 19.0736 239.932ZM21.1949 289.739C23.9095 298.277 24.101 303.726 21.8001 306.91C18.8917 310.923 12.3293 310.97 4.02185 311.03C0.274573 311.053 -3.61066 311.088 -7.66123 311.475C-24.049 313.061 -30.9225 312.108 -37.0995 307.392C-38.347 306.422 -39.5325 305.374 -40.649 304.256C-52.0665 292.953 -62.3297 279.053 -71.9768 261.666C-74.2715 257.547 -76.9323 252.619 -79.3581 247.366C-79.6291 246.771 -80.1019 245.932 -80.6437 244.962C-82.4454 241.724 -85.1643 236.855 -84.2868 234.654C-84.2189 234.408 -84.096 234.181 -83.9273 233.989C-83.7586 233.797 -83.5485 233.647 -83.313 233.548C-83.0419 233.517 -82.7673 233.545 -82.5077 233.629C-82.2482 233.713 -82.0097 233.853 -81.8085 234.037C-80.9758 234.723 -80.3076 235.587 -79.8531 236.564C-79.4931 237.645 -79.3736 238.791 -79.503 239.923C-79.5332 241.658 -79.5945 243.435 -78.2318 244.669C-77.7695 245.152 -77.1633 245.472 -76.504 245.581C-75.8448 245.69 -75.1682 245.583 -74.5759 245.275C-73.8851 244.955 -73.1094 244.867 -72.3639 245.023C-71.9267 245.139 -71.516 245.338 -71.1545 245.61C-70.3759 246.343 -69.8691 247.318 -69.7174 248.376C-69.4968 249.477 -69.0049 250.506 -68.2863 251.369C-68.114 251.553 -67.9268 251.722 -67.7264 251.874C-66.0329 253.167 -63.3324 253.328 -60.7203 253.485C-58.8704 253.478 -57.0307 253.765 -55.27 254.335C-48.4427 257.279 -41.2758 259.362 -33.9352 260.534C-11.9249 263.796 4.92536 251.324 15.6812 241.662C17.2708 240.224 18.297 239.779 18.8533 240.203C19.9578 241.046 19.5649 245.208 19.0358 250.973C18.141 260.83 16.7514 275.78 21.203 289.745L21.1949 289.739Z" fill="#FBFBFB"/>
<path d="M67.1148 114.337C63.9328 112.545 60.3581 111.566 56.7084 111.488C53.0588 111.409 49.4474 112.233 46.1955 113.887C40.1567 116.946 32.6072 124.207 30.9963 141.38C30.3042 148.767 29.8754 156.419 29.4242 163.795C28.179 184.934 27.0091 204.888 20.5819 220.907C13.3151 239.027 0.566366 248.823 -19.5418 251.721C-36.9821 254.211 -54.2651 250.083 -67.0365 240.334C-76.6334 233.008 -82.6233 223.094 -83.8993 212.433C-85.3047 200.704 -81.0672 188.367 -71.6233 176.76C-69.4331 174.06 -67.1253 171.309 -64.6783 168.391C-55.9829 158.036 -46.1574 146.318 -40.1448 134.846C-33.2524 121.678 -32.5316 110.912 -37.8324 101.809C-40.3142 97.3995 -43.6223 93.5085 -47.5757 90.3489C-50.7064 87.903 -54.3854 86.256 -58.294 85.5504C-62.2027 84.8449 -66.2233 85.102 -70.0078 86.2997C-83.8322 90.2957 -97.474 104.79 -104.002 122.349C-117.928 160.048 -109.326 195.48 -90.831 240.495C-76.7584 274.646 -58.8611 295.577 -41.6119 313.116C-40.4091 314.349 -39.1214 315.496 -37.7582 316.549C-29.6748 322.72 -22.7107 321.57 -13.8506 320.057C-10.2374 319.397 -6.59305 318.92 -2.93139 318.628C0.836558 318.383 4.61953 318.487 8.36915 318.939C13.3695 319.445 17.6934 319.888 24.6259 317.524C38.3859 312.832 34.3012 300.338 29.9357 287.176C27.6201 280.235 25.2328 272.981 25.6653 266.936C28.2462 228.814 55.6776 206.909 80.4582 199.146C87.5419 196.923 95.9907 196.169 104.934 195.378C115.87 194.402 127.175 193.385 136.183 189.489C140.053 187.813 142.037 186.197 142.241 184.504C142.366 183.306 141.613 182.02 139.846 180.671C136.704 178.272 130.707 175.764 123.791 172.864C114.074 168.783 101.969 163.707 93.0598 156.905C88.8416 153.875 85.3149 149.983 82.7132 145.489C80.7991 141.561 79.3564 137.421 78.4153 133.155C76.6412 126.421 74.9547 120.064 69.1213 115.611C68.4775 115.148 67.8075 114.723 67.1148 114.337ZM82.4259 145.645C85.0489 150.187 88.6223 154.111 92.9015 157.146C101.844 163.973 113.957 169.055 123.696 173.141C130.571 176.009 136.58 178.553 139.695 180.918C141.332 182.167 142.108 183.355 141.972 184.467C141.787 186.033 139.867 187.58 136.101 189.206C127.148 193.08 115.864 194.088 104.957 195.06C95.9931 195.86 87.5299 196.616 80.4092 198.837C66.2313 203.172 53.5094 211.292 43.613 222.323C32.7083 234.691 26.5935 249.706 25.4042 266.904C24.9771 273.045 27.3749 280.268 29.684 287.269C33.9742 300.308 38.0438 312.636 24.5707 317.223C17.7083 319.563 13.4152 319.131 8.44369 318.621C4.67562 318.147 0.872569 318.019 -2.91802 318.237C-6.5919 318.53 -10.2481 319.011 -13.8723 319.678C-22.6584 321.196 -29.5523 322.322 -37.5293 316.233C-38.8922 315.18 -40.1818 314.035 -41.3893 312.807C-58.6245 295.318 -76.4785 274.381 -90.5044 240.305C-108.935 195.391 -117.561 159.991 -103.667 122.385C-97.2114 104.887 -83.6463 90.4763 -69.9147 86.5C-66.1759 85.3149 -62.2033 85.0588 -58.3409 85.7539C-54.4784 86.449 -50.8425 88.0744 -47.7476 90.4893C-43.8237 93.6241 -40.5416 97.4866 -38.0818 101.864C-32.8067 110.832 -33.5661 121.529 -40.398 134.601C-46.3814 146.018 -56.2131 157.744 -64.9022 168.091C-67.343 171 -69.6571 173.76 -71.8472 176.459C-81.3329 188.139 -85.5957 200.559 -84.1869 212.369C-82.8957 223.196 -76.8673 233.178 -67.2049 240.554C-54.3681 250.354 -37.0013 254.558 -19.4741 252.005C-8.79063 250.461 -0.270879 246.968 6.63624 241.313C12.777 236.288 17.4429 229.633 20.882 220.955C27.3177 204.891 28.4982 184.906 29.7332 163.747C30.2032 156.346 30.6277 148.716 31.3053 141.332C32.905 124.292 40.3612 117.103 46.3319 114.082C49.5376 112.458 53.0959 111.651 56.6908 111.733C60.2856 111.815 63.8057 112.783 66.9382 114.552C67.6065 114.949 68.251 115.385 68.8683 115.857C74.5954 120.229 76.2597 126.53 78.065 133.224C79.0191 137.522 80.4832 141.692 82.4259 145.645Z" fill="#FBFBFB"/>
<path d="M54.013 120.373C52.39 120.32 50.775 120.617 49.2777 121.244C47.7805 121.871 46.4361 122.812 45.3358 124.005C38.2244 131.302 36.4139 148.465 37.0253 160.947C37.783 176.527 37.9844 192.717 34.3772 205.483C33.817 206.915 33.1802 208.315 32.4696 209.678C29.2719 216.445 23.9561 227.752 26.9833 230.062C27.2816 230.274 27.6307 230.402 27.9948 230.434C29.8224 230.652 31.3153 229.477 32.544 226.832C33.5464 224.399 34.3293 221.88 34.8834 219.307C35.5872 216.688 36.0914 214.331 36.8337 213.359C38.7611 210.834 40.8203 210.647 42.7891 210.443C44.4523 210.424 46.0638 209.866 47.3821 208.854C49.2921 207.234 49.6069 205.159 49.9087 203.152C50.2106 201.145 50.4734 199.393 52.0311 197.828C54.9036 194.964 73.8212 191.183 90.5151 187.838C104.297 185.052 116.257 182.684 117.211 181.214C117.245 181.165 117.269 181.11 117.28 181.052C117.291 180.993 117.289 180.933 117.275 180.875C117.056 179.906 116.131 178.812 114.454 177.531C110.765 175 106.908 172.725 102.908 170.722C97.1217 167.598 90.5483 164.08 85.4676 160.202C81.5077 157.179 78.9682 154.348 77.7104 151.551C77.0289 150.035 76.3101 148.297 75.5469 146.447C72.1444 138.249 67.914 128.049 61.4915 123.146C59.3542 121.454 56.7357 120.483 54.013 120.373ZM77.579 151.774C78.8509 154.621 81.4168 157.485 85.4258 160.545C90.5229 164.436 97.1064 167.975 102.907 171.097C106.895 173.085 110.739 175.35 114.412 177.874C116.048 179.124 116.919 180.137 117.154 181.067C117.154 181.067 117.154 181.067 117.098 181.141C116.211 182.507 103.785 185.01 90.597 187.629C73.8681 190.986 54.901 194.781 51.9641 197.712C50.3339 199.338 50.0344 201.308 49.7478 203.211C49.4611 205.113 49.1444 207.173 47.3276 208.722C46.0548 209.691 44.5009 210.221 42.8998 210.23C40.8734 210.442 38.7748 210.664 36.7028 213.259C35.9169 214.289 35.3265 216.606 34.6714 219.313C34.1245 221.865 33.3458 224.361 32.3449 226.771C31.1789 229.282 29.7893 230.407 28.118 230.204C27.7973 230.179 27.4899 230.065 27.2296 229.875C24.3988 227.714 29.8839 216.085 32.8222 209.844C33.5322 208.456 34.1631 207.03 34.712 205.57C38.3027 192.792 38.1056 176.579 37.3191 161.003C36.7155 148.579 38.5026 131.514 45.5434 124.293C46.6172 123.133 47.9273 122.216 49.3855 121.605C50.8438 120.994 52.4165 120.702 53.9977 120.75C56.7012 120.855 59.2992 121.831 61.4041 123.532C67.7611 128.385 71.9631 138.538 75.3617 146.706C76.1378 148.489 76.8566 150.227 77.579 151.774Z" fill="#FBFBFB"/>
<path d="M48.9909 132.77C43.121 138.933 42.2801 155.013 42.788 161.828C43.4336 170.875 43.6085 179.948 43.3121 189.012C43.1714 195.099 43.0956 198.456 44.1101 199.23C44.8055 199.761 45.8762 199.156 47.7976 197.131C62.2872 181.848 79.9362 181.069 90.4981 180.583C95.109 180.378 98.1658 180.242 99.2269 179.021C99.3651 178.844 99.4666 178.641 99.5256 178.424C99.5845 178.207 99.5997 177.98 99.5703 177.757C99.4615 176.678 98.7471 175.68 97.3399 174.606C95.2651 173.196 93.078 171.959 90.8009 170.908C87.0084 169.104 83.3862 166.963 79.9785 164.508C75.2168 160.873 72.2841 156.759 71.0012 151.926C69.1948 145.115 65.4421 136.444 60.3205 132.534C58.6832 131.2 56.6588 130.43 54.5495 130.34C53.5019 130.319 52.4625 130.526 51.503 130.945C50.5434 131.365 49.6864 131.987 48.9909 132.77ZM60.1708 132.73C65.2352 136.596 68.9556 145.191 70.7398 151.946C72.0593 156.833 75.0098 161.026 79.8288 164.704C83.2489 167.172 86.8872 169.322 90.6983 171.127C92.9615 172.168 95.1349 173.395 97.1964 174.794C97.7315 175.109 98.1962 175.53 98.5618 176.032C98.9274 176.533 99.186 177.104 99.3217 177.71C99.3501 177.899 99.3383 178.091 99.2872 178.275C99.2362 178.459 99.1469 178.63 99.0252 178.777C98.0533 179.897 94.8874 180.041 90.5174 180.236C79.9164 180.705 62.1954 181.493 47.6208 196.853C45.8798 198.693 44.8727 199.334 44.3409 198.928C43.4491 198.247 43.5281 194.751 43.6644 188.957C43.943 179.905 43.7549 170.843 43.1009 161.808C42.5906 155.03 43.4121 139.077 49.2095 132.976C49.8787 132.217 50.7042 131.612 51.6294 131.202C52.5546 130.793 53.5577 130.588 54.5701 130.601C56.6156 130.696 58.578 131.442 60.1708 132.73Z" fill="#FBFBFB"/>
<path d="M-6.12438 278.13C-8.44794 276.356 -11.8035 277.325 -16.1118 279.339C-23.6787 282.822 -32.3167 280.703 -36.993 279.551C-39.3466 278.97 -40.2521 278.732 -40.5056 279.301C-40.7591 279.871 -40.4249 280.281 -38.1443 282.281C-31.2697 288.305 -9.73399 293.816 -3.91782 290.031C-3.26237 289.654 -2.75421 289.065 -2.47594 288.362C-2.19767 287.659 -2.16566 286.882 -2.38511 286.157C-3.40976 281.715 -4.54535 279.335 -6.12438 278.13ZM-4.27538 289.448C-9.60939 292.89 -29.7003 287.86 -36.9409 282.333C-37.1973 282.137 -37.4427 281.95 -37.6772 281.771C-38.4342 281.159 -39.1329 280.478 -39.7642 279.738C-38.8916 279.864 -38.0283 280.048 -37.1799 280.288C-32.4522 281.44 -23.6622 283.598 -15.8598 280.009C-10.9467 277.746 -8.35318 277.385 -6.58597 278.734C-5.1542 279.827 -4.11874 282.118 -3.1256 286.381C-2.94075 286.949 -2.95447 287.563 -3.16453 288.122C-3.37459 288.68 -3.7685 289.151 -4.28161 289.456L-4.27538 289.448Z" fill="#FBFBFB"/>
<path d="M-13.4812 272.992C-26.7938 278.879 -39.6725 274.648 -49.4103 270.305C-50.3719 269.868 -50.7266 270.231 -50.8522 270.498C-51.9115 272.275 -46.6146 281.35 -35.0868 290.15C-33.786 291.143 -32.4524 292.161 -31.0334 293.05C-25.5212 296.754 -7.50026 298.897 1.09422 296.884C3.33511 296.357 4.75695 295.58 5.32036 294.588C6.73106 292.095 5.50005 289.552 4.04158 286.628C2.52277 283.528 0.776905 279.997 1.88888 275.724C2.51162 273.212 2.23509 271.488 0.975138 270.526C-1.17855 268.869 -6.04138 269.709 -13.4812 272.992ZM1.38389 275.572C0.231328 280.033 2.00327 283.649 3.57077 286.837C4.95406 289.639 6.13874 292.057 4.87815 294.302C4.35257 295.194 3.04066 295.861 0.985279 296.348C-7.53088 298.344 -25.3258 296.243 -30.75 292.594C-32.1296 291.67 -33.4862 290.699 -34.7788 289.713C-46.1021 281.069 -51.2728 272.168 -50.4096 270.732C-50.2474 270.52 -49.8472 270.657 -49.6053 270.764C-39.767 275.145 -26.7425 279.423 -13.2503 273.453C-2.05641 268.51 3.04796 269.134 1.3757 275.565L1.38389 275.572Z" fill="#FBFBFB"/>
<path d="M83.3918 96.256C70.1554 88.3372 44.6089 91.7263 32.2894 99.8069C10.8917 113.825 11.1131 138.437 11.3121 162.23C11.5176 185.2 11.7044 206.889 -6.09799 219.54C-21.6034 230.555 -42.0354 227.296 -53.3832 218.633C-59.4948 213.967 -63.1353 207.761 -63.6222 201.156C-64.2023 193.315 -60.4119 184.957 -52.6658 177.033C-26.0292 149.722 0.190379 117.632 -25.9989 82.2882C-28.8426 78.4005 -32.2184 74.9311 -36.0271 71.9816C-50.1729 61.1829 -65.3724 62.3833 -75.6448 65.2886C-95.3256 70.8665 -113.53 87.7754 -121.047 107.308C-127.384 123.887 -129.545 143.02 -127.651 165.779C-124.843 199.607 -113.337 235.628 -92.4955 275.89L-91.5916 277.641C-82.8258 294.588 -73.7558 312.104 -61.6521 327.189C-60.9288 328.091 -60.1548 329.095 -59.3196 330.172C-55.6409 334.921 -51.0658 340.819 -46.1405 344.579C-44.4457 345.933 -42.5337 346.99 -40.4859 347.705C-37.7868 348.563 -35.4738 348.027 -33.2474 347.502C-31.5421 347.008 -29.7647 346.807 -27.9914 346.91C-26.1245 347.238 -24.2838 347.701 -22.4836 348.296C-18.9011 349.336 -15.2037 350.413 -13.4745 350.064C-10.1724 349.352 -9.71129 347.764 -9.25058 346.228C-9.14576 345.616 -8.91959 345.032 -8.5854 344.51C-8.2512 343.988 -7.81574 343.538 -7.30467 343.187L-6.26202 342.482C1.75017 337.076 1.75018 337.076 8.73726 339.797C10.0768 340.315 11.7344 340.96 13.7699 341.686C19.624 343.788 23.3056 342.952 26.8758 342.16C29.7608 341.318 32.7969 341.123 35.7676 341.589L35.9967 341.764C38.942 344.012 62.4004 359.592 68.304 355.421C69.8873 354.263 70.0848 351.917 68.9379 348.365C68.116 345.356 66.3434 342.691 63.8844 340.77C63.2083 340.266 62.5059 339.799 61.7802 339.37C61.2028 339.007 60.6581 338.669 60.1754 338.3C58.3754 336.926 56.9459 335.033 59.135 326.992C59.6753 325.012 60.1571 323.414 60.5441 322.092C62.4681 315.569 62.4525 315.453 59.1405 309.614C58.3288 308.167 57.308 306.366 56.0508 304.01C51.9553 296.279 53.1826 291.991 54.74 286.558C55.8059 283.191 56.4917 279.716 56.7848 276.195C56.9849 271.925 56.7838 267.645 56.1841 263.412C55.3583 256.199 54.5787 249.383 58.3685 241.891C64.9588 228.932 79.4194 222.797 94.0663 218.097C101.165 215.82 112.45 215.473 124.4 215.103C144.696 214.469 167.69 213.762 175.898 203.112C180.558 197.008 182.592 191.137 181.839 185.661C181.043 179.647 177.13 174.035 169.897 168.514C159.401 160.501 143.812 154.187 130.049 148.621C119.178 144.202 109.857 140.449 104.907 136.671C103.941 135.967 103.081 135.128 102.355 134.179C98.6639 129.124 97.192 123.215 95.7535 117.5C93.8585 109.924 92.0776 102.757 85.516 97.7483C84.8381 97.2092 84.1288 96.711 83.3918 96.256ZM101.775 134.565C102.549 135.565 103.459 136.451 104.479 137.198C109.503 141.032 118.903 144.833 129.786 149.236C143.505 154.793 159.054 161.09 169.469 169.041C176.546 174.443 180.339 179.925 181.133 185.704C181.836 191.025 179.875 196.732 175.315 202.654C167.313 213.034 144.488 213.741 124.342 214.347C112.407 214.716 101.029 215.083 93.858 217.369C79.0564 222.119 64.445 228.333 57.7315 241.521C53.8333 249.189 54.6202 256.114 55.4678 263.434C56.0783 267.639 56.3003 271.891 56.131 276.136C55.8367 279.605 55.1589 283.03 54.1099 286.349C52.5081 291.942 51.2386 296.353 55.4783 304.335C56.6902 306.683 57.6534 308.492 58.5204 309.969C61.7086 315.597 61.7086 315.597 59.8073 321.853C59.414 323.183 58.9404 324.787 58.4083 326.773C56.3085 334.443 57.2925 337.005 59.6978 338.841C60.2349 339.237 60.7917 339.606 61.3661 339.946C62.0234 340.358 62.7115 340.779 63.4069 341.31C65.7625 343.14 67.4545 345.69 68.2243 348.57C69.2914 351.803 69.1637 353.904 67.8642 354.826C62.7324 358.461 40.563 344.331 36.4232 341.171L36.2186 341.015L35.9474 341.234L36.018 340.887C32.9109 340.371 29.7282 340.558 26.7046 341.434C23.0724 342.257 19.6195 343.048 13.9934 341.003C11.9641 340.269 10.3148 339.631 8.967 339.106C1.7173 336.288 1.56687 336.315 -6.70568 341.859L-7.74833 342.563C-8.33448 342.961 -8.83534 343.471 -9.22161 344.064C-9.60789 344.658 -9.87181 345.322 -9.99794 346.019C-10.4107 347.476 -10.7766 348.736 -13.6582 349.355C-15.1999 349.678 -18.9652 348.589 -22.2889 347.616C-24.1348 347.014 -26.0206 346.543 -27.9323 346.205C-29.7863 346.089 -31.6459 346.298 -33.4272 346.822C-35.6618 347.34 -37.7687 347.827 -40.2831 347.033C-42.2602 346.339 -44.1057 345.315 -45.7409 344.004C-50.5474 340.309 -55.0959 334.444 -58.7731 329.762C-59.6083 328.685 -60.3905 327.674 -61.1138 326.772C-73.1809 311.741 -82.2326 294.252 -90.9781 277.346L-91.882 275.595C-112.683 235.415 -124.155 199.486 -126.957 165.753C-128.844 143.102 -126.69 124.08 -120.399 107.596C-112.997 88.2472 -94.942 71.5344 -75.4654 66.0205C-65.3641 63.1526 -50.3727 61.9874 -36.4641 72.605C-32.7019 75.5049 -29.3676 78.921 -26.5602 82.7521C-0.710999 117.642 -26.7454 149.473 -53.1622 176.563C-61.0618 184.655 -64.9236 193.191 -64.3288 201.25C-63.8477 208.084 -60.1321 214.412 -53.8078 219.24C-42.2554 228.059 -21.4556 231.379 -5.66252 220.157C12.4419 207.297 12.2399 184.407 12.0505 162.264C11.8398 138.656 11.6312 114.248 32.7042 100.434C44.8561 92.4712 70.0176 89.1114 83.0452 96.8967C83.7593 97.3243 84.4494 97.7907 85.1125 98.2938C91.4695 103.147 93.2267 110.191 95.0918 117.655C96.5135 123.409 98.0096 129.388 101.775 134.565Z" fill="#FBFBFB"/>
</g>
<defs>
<clipPath id="clip0_251_10765">
<rect width="303.808" height="276.135" fill="white" transform="translate(31.4858 403.837) rotate(-142.642)"/>
</clipPath>
</defs>
</svg>
