<svg width="90" height="54" viewBox="0 0 90 54" fill="none" xmlns="http://www.w3.org/2000/svg">
<path fill-rule="evenodd" clip-rule="evenodd" d="M2.22519 29.1235C3.44834 29.1235 4.43989 30.1187 4.4399 31.3463L4.43991 42.0287C4.43992 45.7116 7.41458 48.6971 11.084 48.6971H55.6227C59.2921 48.6971 62.2668 45.7116 62.2668 42.0287V34.2299C62.2668 31.4097 64.5446 29.1235 67.3545 29.1235C70.1644 29.1235 72.4423 31.4097 72.4423 34.2299V42.503C72.4423 45.9239 75.2054 48.6971 78.6138 48.6971C82.0223 48.6971 84.7854 45.9239 84.7854 42.503V31.3463C84.7854 30.1187 85.777 29.1235 87.0001 29.1235C88.2233 29.1235 89.2148 30.1187 89.2148 31.3463V42.503C89.2148 48.3791 84.4686 53.1427 78.6138 53.1427C72.7591 53.1427 68.0129 48.3791 68.0129 42.503V34.2299C68.0129 33.865 67.7181 33.5691 67.3545 33.5691C66.9909 33.5691 66.6962 33.865 66.6962 34.2299V42.0287C66.6962 48.1668 61.7384 53.1427 55.6227 53.1427H11.084C4.96829 53.1427 0.0105268 48.1668 0.0105163 42.0287L0.010498 31.3463C0.0104959 30.1187 1.00205 29.1235 2.22519 29.1235Z" fill="#373430"/>
<g clip-path="url(#clip0_282_12737)">
<path d="M42.0201 8.38477H30.3755V23.2704C29.5968 22.8495 28.408 22.9251 27.2865 23.5613C25.729 24.4435 24.9003 26.0636 25.4318 27.1799C25.9633 28.2962 27.6575 28.4878 29.215 27.6056C30.5165 26.8677 31.3691 25.6142 31.3626 24.576V11.1211H41.1676V23.2397C40.3888 22.8116 39.1979 22.8944 38.0699 23.5211C36.5124 24.4033 35.6837 26.0234 36.2152 27.142C36.7466 28.2607 38.4408 28.4476 39.9984 27.5654C41.2999 26.8299 42.0874 25.5787 42.0049 24.5358L42.0201 8.38477Z" fill="#373430"/>
</g>
<g clip-path="url(#clip1_282_12737)">
<path d="M80.7188 7.26802L73.8728 11.235C73.8581 11.2435 73.8412 11.2467 73.8256 11.2439C73.8101 11.241 73.7974 11.2324 73.7902 11.2199L73.67 11.0109C73.6627 10.9983 73.6617 10.9829 73.667 10.968C73.6722 10.9531 73.6835 10.94 73.6982 10.9314L79.9887 7.2863C79.6307 7.08212 79.3918 6.59213 79.4072 5.99037C79.428 5.15498 79.9306 4.42572 80.5276 4.36071C81.1247 4.29569 81.5932 4.92091 81.5709 5.75602C81.5537 6.45284 81.1634 7.01271 80.7188 7.26802Z" fill="#373430"/>
</g>
<g clip-path="url(#clip2_282_12737)">
<path d="M79.5307 23.4559C77.9683 24.1283 76.6637 26.0517 77.6873 27.4138C78.635 28.6749 80.4824 28.2612 81.715 27.279C82.7905 26.422 83.6475 25.1445 82.9323 23.9679C82.2327 22.817 80.7652 22.9246 79.5307 23.4559Z" fill="#373430"/>
</g>
<defs>
<clipPath id="clip0_282_12737">
<rect width="23.5312" height="23.8952" fill="white" transform="translate(21.7905 8.27051)"/>
</clipPath>
<clipPath id="clip1_282_12737">
<rect width="10.4519" height="13.1468" fill="white" transform="matrix(-0.49863 -0.866815 -0.865233 0.501371 85.8416 9.21729)"/>
</clipPath>
<clipPath id="clip2_282_12737">
<rect width="6.6441" height="5.55702" fill="white" transform="translate(77.1582 22.7188)"/>
</clipPath>
</defs>
</svg>
