<svg width="24" height="24" viewBox="0 0 24 24" fill="none" xmlns="http://www.w3.org/2000/svg">
<path d="M22 12C22 6.48 17.52 2 12 2C6.48 2 2 6.48 2 12C2 17.52 6.48 22 12 22" stroke="#8C8779" stroke-width="1.5" stroke-linecap="round" stroke-linejoin="round"/>
<path d="M8.00156 3H9.00156C7.05156 8.84 7.05156 15.16 9.00156 21H8.00156" stroke="#8C8779" stroke-width="1.5" stroke-linecap="round" stroke-linejoin="round"/>
<path d="M15 3C15.97 5.92 16.46 8.96 16.46 12" stroke="#8C8779" stroke-width="1.5" stroke-linecap="round" stroke-linejoin="round"/>
<path d="M3 16V15C5.92 15.97 8.96 16.46 12 16.46" stroke="#8C8779" stroke-width="1.5" stroke-linecap="round" stroke-linejoin="round"/>
<path d="M3 8.99961C8.84 7.04961 15.16 7.04961 21 8.99961" stroke="#8C8779" stroke-width="1.5" stroke-linecap="round" stroke-linejoin="round"/>
<path d="M19.211 15.74L15.671 19.2801C15.531 19.4201 15.401 19.68 15.371 19.87L15.181 21.22C15.111 21.71 15.451 22.05 15.941 21.98L17.291 21.79C17.481 21.76 17.751 21.63 17.881 21.49L21.421 17.95C22.031 17.34 22.321 16.63 21.421 15.73C20.531 14.84 19.821 15.13 19.211 15.74Z" stroke="#8C8779" stroke-width="1.5" stroke-miterlimit="10" stroke-linecap="round" stroke-linejoin="round"/>
<path d="M18.6992 16.25C18.9992 17.33 19.8392 18.17 20.9192 18.47" stroke="#8C8779" stroke-width="1.5" stroke-miterlimit="10" stroke-linecap="round" stroke-linejoin="round"/>
</svg>
