<svg width="24" height="24" viewBox="0 0 24 24" fill="none" xmlns="http://www.w3.org/2000/svg">
<g clip-path="url(#clip0_2542_42158)">
<path d="M18.7285 14.6701L14.5785 18.8201C14.4185 18.9801 14.2685 19.2901 14.2285 19.5101L13.9985 21.1001C13.9185 21.6701 14.3185 22.0801 14.8885 21.9901L16.4785 21.7601C16.6985 21.7301 17.0085 21.5701 17.1685 21.4101L21.3185 17.2601C22.0285 16.5501 22.3685 15.7101 21.3185 14.6601C20.2785 13.6201 19.4485 13.9501 18.7285 14.6701Z" fill="#201B09"/>
<path d="M18.1406 15.2598C18.4906 16.5198 19.4806 17.4998 20.7406 17.8598L18.1406 15.2598Z" fill="#201B09"/>
<path d="M2.03172 14.6299C2.03172 14.6599 2.01172 14.6999 2.01172 14.7299C2.93172 16.5699 4.43172 18.0799 6.27172 18.9899C6.30172 18.9899 6.34172 18.9699 6.37172 18.9699C6.03172 17.8099 5.77172 16.6199 5.58172 15.4299C4.38172 15.2299 3.19172 14.9699 2.03172 14.6299Z" fill="#201B09"/>
<path d="M19.0681 6.43043C18.1281 4.46043 16.5381 2.87043 14.5781 1.94043C14.9381 3.13043 15.2381 4.35043 15.4381 5.57043C16.6581 5.77043 17.8781 6.06043 19.0681 6.43043Z" fill="#201B09"/>
<path d="M1.92969 6.42953C3.12969 6.06953 4.34969 5.76953 5.56969 5.56953C5.76969 4.37953 6.01969 3.19953 6.35969 2.03953C6.32969 2.03953 6.28969 2.01953 6.25969 2.01953C4.37969 2.94953 2.84969 4.51953 1.92969 6.42953Z" fill="#201B09"/>
<path d="M13.8197 5.36C13.5797 4.06 13.2797 2.76 12.8497 1.5C12.8297 1.43 12.8297 1.37 12.8197 1.29C12.0797 1.11 11.2997 1 10.4997 1C9.68969 1 8.91969 1.11 8.16969 1.3C8.15969 1.37 8.16969 1.43 8.14969 1.51C7.72969 2.77 7.41969 4.06 7.17969 5.36C9.38969 5.12 11.6097 5.12 13.8197 5.36Z" fill="#201B09"/>
<path d="M5.36 7.17969C4.05 7.41969 2.77 7.72969 1.5 8.14969C1.43 8.16969 1.37 8.16969 1.3 8.17969C1.11 8.91969 1 9.69969 1 10.4997C1 11.3097 1.11 12.0797 1.3 12.8297C1.37 12.8397 1.43 12.8297 1.51 12.8497C2.77 13.2697 4.06 13.5797 5.37 13.8197C5.12 11.6097 5.12 9.38969 5.36 7.17969Z" fill="#201B09"/>
<path d="M19.6989 8.17969C19.6289 8.17969 19.5689 8.16969 19.4889 8.14969C18.2289 7.72969 16.9289 7.41969 15.6289 7.17969C15.8789 9.38969 15.8789 11.6097 15.6289 13.8097C16.9289 13.5697 18.2289 13.2697 19.4889 12.8397C19.5589 12.8197 19.6189 12.8297 19.6989 12.8197C19.8789 12.0697 19.9989 11.2997 19.9989 10.4897C19.9989 9.69969 19.8889 8.92969 19.6989 8.17969Z" fill="#201B09"/>
<path d="M7.17969 15.6399C7.41969 16.9499 7.71969 18.2399 8.14969 19.4999C8.16969 19.5699 8.15969 19.6299 8.16969 19.7099C8.91969 19.8899 9.68969 19.9999 10.4997 19.9999C11.2997 19.9999 12.0797 19.8899 12.8197 19.6999C12.8297 19.6299 12.8297 19.5699 12.8497 19.4899C13.2697 18.2299 13.5797 16.9399 13.8197 15.6299C12.7197 15.7499 11.6097 15.8399 10.4997 15.8399C9.38969 15.8399 8.27969 15.7599 7.17969 15.6399Z" fill="#201B09"/>
<path d="M6.95156 6.94961C6.65156 9.30961 6.65156 11.6896 6.95156 14.0596C9.31156 14.3596 11.6916 14.3596 14.0616 14.0596C14.3616 11.6996 14.3616 9.31961 14.0616 6.94961C11.6916 6.64961 9.31156 6.64961 6.95156 6.94961Z" fill="#201B09"/>
</g>
<defs>
<clipPath id="clip0_2542_42158">
<rect width="24" height="24" fill="white"/>
</clipPath>
</defs>
</svg>
