<svg width="32" height="33" viewBox="0 0 32 33" fill="none" xmlns="http://www.w3.org/2000/svg">
<path d="M16.0935 29.8064C14.2135 29.8064 12.3201 29.0864 10.8935 27.6598L4.85345 21.6198C3.38678 20.1531 2.61345 18.1264 2.70678 16.0598L3.02678 9.37978C3.17345 6.19311 5.69345 3.67311 8.89345 3.51311L15.5601 3.19311C17.6401 3.09978 19.6535 3.87311 21.1201 5.33978L27.1601 11.3798C30.0268 14.2464 30.0268 18.9264 27.1601 21.7931L21.3068 27.6464C19.8668 29.0864 17.9868 29.8064 16.0935 29.8064ZM6.26678 20.1931L12.3068 26.2331C14.4001 28.3264 17.8001 28.3264 19.8935 26.2331L25.7468 20.3798C27.8401 18.2864 27.8401 14.8864 25.7468 12.7931L19.6935 6.76645C18.6268 5.69978 17.1735 5.13978 15.6401 5.20645L8.97345 5.52645C6.81345 5.61978 5.12012 7.31311 5.01345 9.47311L4.69345 16.1531C4.62678 17.6464 5.20012 19.1264 6.26678 20.1931Z" fill="#BCB8B3"/>
<path d="M12.6654 17.5002C10.2787 17.5002 8.33203 15.5535 8.33203 13.1668C8.33203 10.7802 10.2787 8.8335 12.6654 8.8335C15.052 8.8335 16.9987 10.7802 16.9987 13.1668C16.9987 15.5535 15.052 17.5002 12.6654 17.5002ZM12.6654 10.8335C11.3854 10.8335 10.332 11.8868 10.332 13.1668C10.332 14.4468 11.3854 15.5002 12.6654 15.5002C13.9454 15.5002 14.9987 14.4468 14.9987 13.1668C14.9987 11.8868 13.9454 10.8335 12.6654 10.8335Z" fill="#BCB8B3"/>
<path d="M17.3326 24.1664C17.0793 24.1664 16.8259 24.0731 16.6259 23.8731C16.2393 23.4864 16.2393 22.8464 16.6259 22.4598L21.9593 17.1264C22.3459 16.7398 22.9859 16.7398 23.3726 17.1264C23.7593 17.5131 23.7593 18.1531 23.3726 18.5398L18.0393 23.8731C17.8393 24.0731 17.5859 24.1664 17.3326 24.1664Z" fill="#BCB8B3"/>
</svg>
