<svg width="48" height="48" viewBox="0 0 48 48" fill="none" xmlns="http://www.w3.org/2000/svg">
<path d="M31.4745 13.8557C31.791 13.6447 32.1636 13.5333 32.544 13.536V13.504C32.9892 13.5025 33.4212 13.6558 33.7659 13.9376C34.1105 14.2195 34.3466 14.6123 34.4335 15.049C34.5205 15.4857 34.453 15.939 34.2425 16.3314C34.0321 16.7238 33.6919 17.0308 33.28 17.2C33.0463 17.2951 32.7963 17.344 32.544 17.344H32.176C31.7999 17.2712 31.4542 17.0875 31.1833 16.8167C30.9125 16.5458 30.7288 16.2001 30.656 15.824C30.5885 15.4528 30.6273 15.0701 30.768 14.72C30.9119 14.3678 31.1579 14.0668 31.4745 13.8557Z" fill="url(#paint0_linear_356_229)"/>
<path fill-rule="evenodd" clip-rule="evenodd" d="M20.5072 16.5961C21.598 16.074 22.7907 15.7994 24 15.792C25.084 15.7711 26.1611 15.9686 27.1671 16.3727C28.1732 16.7767 29.0876 17.3791 29.856 18.144C31.1975 19.4882 32.0325 21.2553 32.2192 23.1452C32.4058 25.0351 31.9327 26.9313 30.88 28.512C29.9722 29.8552 28.6937 30.9058 27.2 31.536C26.1854 31.9546 25.0975 32.1668 24 32.16C23.4626 32.1622 22.9264 32.1086 22.4 32C20.8289 31.6951 19.3854 30.9259 18.256 29.792C17.1079 28.6471 16.3232 27.1889 16 25.6C15.7642 24.4139 15.7935 23.1904 16.0856 22.0169C16.3778 20.8434 16.9257 19.749 17.69 18.8118C18.4544 17.8747 19.4164 17.1181 20.5072 16.5961ZM21.7103 28.8171C22.4261 29.1554 23.2083 29.3299 24 29.328C24.6966 29.3252 25.3863 29.1895 26.032 28.928C27.3349 28.3725 28.3725 27.3349 28.928 26.032C29.1895 25.3863 29.3252 24.6966 29.328 24C29.3301 22.9363 29.0184 21.8955 28.432 21.008C27.9461 20.2782 27.287 19.68 26.5137 19.2668C25.7404 18.8536 24.8768 18.6383 24 18.64C23.6511 18.6402 23.303 18.6723 22.96 18.736C21.9298 18.9526 20.985 19.4643 20.2406 20.2086C19.4963 20.953 18.9846 21.8978 18.768 22.928C18.6087 23.7035 18.6242 24.5048 18.8135 25.2736C19.0027 26.0423 19.3609 26.7593 19.862 27.3722C20.3631 27.9852 20.9945 28.4788 21.7103 28.8171Z" fill="url(#paint1_linear_356_229)"/>
<path fill-rule="evenodd" clip-rule="evenodd" d="M17.408 8.096C19.104 8 19.648 8 24 8C28.352 8 28.896 8 30.592 8.096C31.9207 8.12932 33.2347 8.38346 34.48 8.848C35.551 9.23919 36.5194 9.86831 37.312 10.688C38.1312 11.4842 38.7649 12.4511 39.168 13.52C39.6274 14.7662 39.8761 16.0801 39.904 17.408C40 19.104 40 19.648 40 24C40 26.6794 39.9636 27.9153 39.9356 28.8654C39.9182 29.4585 39.904 29.9402 39.904 30.592C39.8761 31.9199 39.6274 33.2338 39.168 34.48C38.7649 35.5489 38.1312 36.5158 37.312 37.312C36.5194 38.1317 35.551 38.7608 34.48 39.152C33.2347 39.6165 31.9207 39.8707 30.592 39.904C28.896 40 28.352 40 24 40C19.648 40 19.104 40 17.408 39.904C16.0793 39.8707 14.7653 39.6165 13.52 39.152C12.4521 38.7545 11.4851 38.1262 10.688 37.312C9.86831 36.5194 9.23919 35.551 8.848 34.48C8.38346 33.2347 8.12932 31.9207 8.096 30.592C8 28.896 8 28.352 8 24C8 19.648 8 19.104 8.096 17.408C8.12932 16.0793 8.38346 14.7653 8.848 13.52C9.23919 12.449 9.86831 11.4806 10.688 10.688C11.4851 9.87378 12.4521 9.24551 13.52 8.848C14.7653 8.38346 16.0793 8.12932 17.408 8.096ZM14.56 36.48C15.5033 36.7985 16.4924 36.9606 17.488 36.96H17.6C19.2 37.056 19.792 37.056 24 37.056C26.603 37.056 27.8223 37.0193 28.7525 36.9912C29.3261 36.974 29.7897 36.96 30.4 36.96C31.4379 36.9489 32.4662 36.7595 33.44 36.4C34.1343 36.1406 34.7627 35.7308 35.28 35.2C35.8122 34.6901 36.2224 34.0666 36.48 33.376C36.8269 32.4215 37.0108 31.4155 37.024 30.4C37.12 28.8 37.12 28.208 37.12 24C37.12 19.792 37.104 19.2 37.024 17.6C37.02 16.5628 36.8359 15.5342 36.48 14.56C36.2131 13.8929 35.8035 13.2922 35.28 12.8C34.7545 12.2299 34.1023 11.7915 33.376 11.52C32.4215 11.1731 31.4155 10.9892 30.4 10.976C28.8 10.88 28.208 10.88 24 10.88C21.397 10.88 20.1777 10.9167 19.2475 10.9448C18.6739 10.962 18.2103 10.976 17.6 10.976C16.5635 10.9878 15.5362 11.1716 14.56 11.52C13.8863 11.812 13.2854 12.2491 12.8 12.8C12.2537 13.286 11.822 13.8871 11.536 14.56C11.1671 15.5311 10.9773 16.5611 10.976 17.6C10.88 19.2 10.88 19.792 10.88 24C10.88 26.603 10.9167 27.8223 10.9448 28.7525C10.962 29.3261 10.976 29.7897 10.976 30.4C11.011 31.4428 11.2276 32.4716 11.616 33.44C11.8595 34.1384 12.2653 34.769 12.8 35.28C13.2993 35.7951 13.8981 36.2033 14.56 36.48Z" fill="url(#paint2_linear_356_229)"/>
<defs>
<linearGradient id="paint0_linear_356_229" x1="8.14478" y1="8.03093" x2="17.9597" y2="45.7361" gradientUnits="userSpaceOnUse">
<stop stop-color="#D39940"/>
<stop offset="0.473958" stop-color="#AE3793"/>
<stop offset="1" stop-color="#3D22C6"/>
</linearGradient>
<linearGradient id="paint1_linear_356_229" x1="8.14478" y1="8.03093" x2="17.9597" y2="45.7361" gradientUnits="userSpaceOnUse">
<stop stop-color="#D39940"/>
<stop offset="0.473958" stop-color="#AE3793"/>
<stop offset="1" stop-color="#3D22C6"/>
</linearGradient>
<linearGradient id="paint2_linear_356_229" x1="8.14478" y1="8.03093" x2="17.9597" y2="45.7361" gradientUnits="userSpaceOnUse">
<stop stop-color="#D39940"/>
<stop offset="0.473958" stop-color="#AE3793"/>
<stop offset="1" stop-color="#3D22C6"/>
</linearGradient>
</defs>
</svg>
