<svg width="32" height="32" viewBox="0 0 32 32" fill="none" xmlns="http://www.w3.org/2000/svg">
<path d="M24.9196 15.3731C24.1596 15.1731 23.2662 15.0664 22.1996 15.0664C20.7196 15.0664 20.1729 15.4264 19.4129 15.9997C19.3729 16.0264 19.3329 16.0664 19.2929 16.1064L18.0262 17.4531C16.9729 18.5864 15.0396 18.5864 13.9729 17.4531L12.7062 16.1197C12.6662 16.0664 12.6262 16.0264 12.5862 15.9997C11.8129 15.4264 11.2662 15.0664 9.79958 15.0664C8.73292 15.0664 7.83958 15.1597 7.07958 15.3731C3.90625 16.2264 3.90625 18.7464 3.90625 20.9597V22.1997C3.90625 25.5464 3.90625 29.3331 11.0396 29.3331H20.9596C25.6929 29.3331 28.0929 26.9331 28.0929 22.1997V20.9597C28.0929 18.7464 28.0929 16.2264 24.9196 15.3731Z" fill="#373430"/>
<path opacity="0.4" d="M19.7201 2.66699H12.2801C6.38672 2.66699 6.38672 5.80033 6.38672 8.56033V16.2803C6.38672 16.5737 6.52005 16.8403 6.74672 17.0137C6.97339 17.187 7.28005 17.2537 7.56005 17.1737C8.16005 17.0137 8.90672 16.9337 9.80005 16.9337C10.6934 16.9337 10.8801 17.0403 11.4134 17.4403L12.6267 18.7203C13.4934 19.6537 14.7334 20.187 16.0134 20.187C17.2934 20.187 18.5201 19.6537 19.4001 18.7203L20.6134 17.4403C21.1467 17.0403 21.3334 16.9337 22.2267 16.9337C23.1201 16.9337 23.8667 17.0137 24.4667 17.1737C24.7467 17.2537 25.0401 17.187 25.2801 17.0137C25.5067 16.8403 25.6401 16.5603 25.6401 16.2803V8.56033C25.6134 5.80033 25.6134 2.66699 19.7201 2.66699Z" fill="#373430"/>
<path d="M18.0667 13.2133H13.9333C13.4133 13.2133 13 12.8 13 12.28C13 11.76 13.4133 11.3467 13.9333 11.3467H18.0667C18.5867 11.3467 19 11.76 19 12.28C19 12.7867 18.5733 13.2133 18.0667 13.2133Z" fill="#373430"/>
<path d="M19.1066 9.49362H12.8933C12.3733 9.49362 11.96 9.08029 11.96 8.56029C11.96 8.04029 12.3733 7.62695 12.8933 7.62695H19.0933C19.6133 7.62695 20.0266 8.04029 20.0266 8.56029C20.0266 9.06695 19.6133 9.49362 19.1066 9.49362Z" fill="#373430"/>
</svg>
