<svg width="24" height="24" viewBox="0 0 24 24" fill="none" xmlns="http://www.w3.org/2000/svg">
<path d="M22 11V9C22 4 20 2 15 2H9C4 2 2 4 2 9V15C2 20 4 22 9 22H10" stroke="#8C8779" stroke-width="1.5" stroke-linecap="round" stroke-linejoin="round"/>
<path d="M2.03125 8.5H22.0012" stroke="#8C8779" stroke-width="1.5" stroke-linecap="round" stroke-linejoin="round"/>
<path d="M2.03125 15.5H12.0012" stroke="#8C8779" stroke-width="1.5" stroke-linecap="round" stroke-linejoin="round"/>
<path d="M8.51172 21.9897V2.00977" stroke="#8C8779" stroke-width="1.5" stroke-linecap="round" stroke-linejoin="round"/>
<path d="M15.5117 11.9897V2.00977" stroke="#8C8779" stroke-width="1.5" stroke-linecap="round" stroke-linejoin="round"/>
<path d="M18.7284 14.6701L14.5785 18.82C14.4185 18.98 14.2684 19.29 14.2284 19.51L13.9985 21.1C13.9185 21.67 14.3185 22.08 14.8885 21.99L16.4784 21.76C16.6984 21.73 17.0085 21.5701 17.1685 21.4101L21.3185 17.26C22.0285 16.55 22.3685 15.7101 21.3185 14.6601C20.2785 13.6201 19.4484 13.9501 18.7284 14.6701Z" stroke="#8C8779" stroke-width="1.5" stroke-miterlimit="10" stroke-linecap="round" stroke-linejoin="round"/>
<path d="M18.1367 15.2598C18.4867 16.5198 19.4767 17.4997 20.7367 17.8597" stroke="#8C8779" stroke-width="1.5" stroke-miterlimit="10" stroke-linecap="round" stroke-linejoin="round"/>
</svg>
