<svg width="24" height="25" viewBox="0 0 24 25" fill="none" xmlns="http://www.w3.org/2000/svg">
<path d="M9 22.5H15C20 22.5 22 20.5 22 15.5V9.5C22 4.5 20 2.5 15 2.5H9C4 2.5 2 4.5 2 9.5V15.5C2 20.5 4 22.5 9 22.5Z" stroke="#373430" stroke-width="1.5" stroke-linecap="round" stroke-linejoin="round"/>
<path d="M9 10.5C10.1046 10.5 11 9.60457 11 8.5C11 7.39543 10.1046 6.5 9 6.5C7.89543 6.5 7 7.39543 7 8.5C7 9.60457 7.89543 10.5 9 10.5Z" stroke="#373430" stroke-width="1.5" stroke-linecap="round" stroke-linejoin="round"/>
<path d="M2.67188 19.4501L7.60187 16.1401C8.39187 15.6101 9.53187 15.6701 10.2419 16.2801L10.5719 16.5701C11.3519 17.2401 12.6119 17.2401 13.3919 16.5701L17.5519 13.0001C18.3319 12.3301 19.5919 12.3301 20.3719 13.0001L22.0019 14.4001" stroke="#373430" stroke-width="1.5" stroke-linecap="round" stroke-linejoin="round"/>
</svg>
