<svg width="32" height="32" viewBox="0 0 32 32" fill="none" xmlns="http://www.w3.org/2000/svg">
<path d="M11.9987 14.3333C9.97203 14.3333 8.33203 12.6933 8.33203 10.6667C8.33203 8.64 9.97203 7 11.9987 7C14.0254 7 15.6654 8.64 15.6654 10.6667C15.6654 12.6933 14.0254 14.3333 11.9987 14.3333ZM11.9987 9C11.0787 9 10.332 9.74667 10.332 10.6667C10.332 11.5867 11.0787 12.3333 11.9987 12.3333C12.9187 12.3333 13.6654 11.5867 13.6654 10.6667C13.6654 9.74667 12.9187 9 11.9987 9Z" fill="#373430"/>
<path d="M20.0013 30.3332H12.0013C4.7613 30.3332 1.66797 27.2398 1.66797 19.9998V11.9998C1.66797 4.75984 4.7613 1.6665 12.0013 1.6665H17.3346C17.8813 1.6665 18.3346 2.11984 18.3346 2.6665C18.3346 3.21317 17.8813 3.6665 17.3346 3.6665H12.0013C5.85464 3.6665 3.66797 5.85317 3.66797 11.9998V19.9998C3.66797 26.1465 5.85464 28.3332 12.0013 28.3332H20.0013C26.148 28.3332 28.3346 26.1465 28.3346 19.9998V13.3332C28.3346 12.7865 28.788 12.3332 29.3346 12.3332C29.8813 12.3332 30.3346 12.7865 30.3346 13.3332V19.9998C30.3346 27.2398 27.2413 30.3332 20.0013 30.3332Z" fill="#373430"/>
<path d="M28.3333 7.6665H21C20.4533 7.6665 20 7.21317 20 6.6665C20 6.11984 20.4533 5.6665 21 5.6665H28.3333C28.88 5.6665 29.3333 6.11984 29.3333 6.6665C29.3333 7.21317 28.88 7.6665 28.3333 7.6665Z" fill="#373430"/>
<path d="M24.668 11.3333C24.1213 11.3333 23.668 10.88 23.668 10.3333V3C23.668 2.45333 24.1213 2 24.668 2C25.2146 2 25.668 2.45333 25.668 3V10.3333C25.668 10.88 25.2146 11.3333 24.668 11.3333Z" fill="#373430"/>
<path d="M3.55909 26.2666C3.23909 26.2666 2.91909 26.1066 2.73242 25.8266C2.42576 25.3733 2.54576 24.7466 2.99909 24.4399L9.57242 20.0266C11.0124 19.0666 12.9991 19.1732 14.3058 20.2799L14.7458 20.6666C15.4124 21.2399 16.5458 21.2399 17.1991 20.6666L22.7458 15.9066C24.1724 14.6932 26.3858 14.6932 27.8124 15.9066L29.9858 17.7732C30.3991 18.1332 30.4524 18.7599 30.0924 19.1866C29.7324 19.5999 29.1058 19.6532 28.6791 19.2932L26.5058 17.4266C25.8391 16.8532 24.7058 16.8532 24.0524 17.4266L18.5058 22.1866C17.0924 23.3999 14.8658 23.3999 13.4391 22.1866L12.9991 21.7999C12.3858 21.2799 11.3724 21.2266 10.6924 21.6932L4.13242 26.1066C3.94576 26.2132 3.74576 26.2666 3.55909 26.2666Z" fill="#373430"/>
</svg>
