<svg width="32" height="33" viewBox="0 0 32 33" fill="none" xmlns="http://www.w3.org/2000/svg">
<path d="M11.9987 14.8333C9.97203 14.8333 8.33203 13.1933 8.33203 11.1667C8.33203 9.14 9.97203 7.5 11.9987 7.5C14.0254 7.5 15.6654 9.14 15.6654 11.1667C15.6654 13.1933 14.0254 14.8333 11.9987 14.8333ZM11.9987 9.5C11.0787 9.5 10.332 10.2467 10.332 11.1667C10.332 12.0867 11.0787 12.8333 11.9987 12.8333C12.9187 12.8333 13.6654 12.0867 13.6654 11.1667C13.6654 10.2467 12.9187 9.5 11.9987 9.5Z" fill="#BCB8B3"/>
<path d="M20.0013 30.8332H12.0013C4.7613 30.8332 1.66797 27.7398 1.66797 20.4998V12.4998C1.66797 5.25984 4.7613 2.1665 12.0013 2.1665H17.3346C17.8813 2.1665 18.3346 2.61984 18.3346 3.1665C18.3346 3.71317 17.8813 4.1665 17.3346 4.1665H12.0013C5.85464 4.1665 3.66797 6.35317 3.66797 12.4998V20.4998C3.66797 26.6465 5.85464 28.8332 12.0013 28.8332H20.0013C26.148 28.8332 28.3346 26.6465 28.3346 20.4998V13.8332C28.3346 13.2865 28.788 12.8332 29.3346 12.8332C29.8813 12.8332 30.3346 13.2865 30.3346 13.8332V20.4998C30.3346 27.7398 27.2413 30.8332 20.0013 30.8332Z" fill="#BCB8B3"/>
<path d="M28.3333 8.1665H21C20.4533 8.1665 20 7.71317 20 7.1665C20 6.61984 20.4533 6.1665 21 6.1665H28.3333C28.88 6.1665 29.3333 6.61984 29.3333 7.1665C29.3333 7.71317 28.88 8.1665 28.3333 8.1665Z" fill="#BCB8B3"/>
<path d="M24.668 11.8333C24.1213 11.8333 23.668 11.38 23.668 10.8333V3.5C23.668 2.95333 24.1213 2.5 24.668 2.5C25.2146 2.5 25.668 2.95333 25.668 3.5V10.8333C25.668 11.38 25.2146 11.8333 24.668 11.8333Z" fill="#BCB8B3"/>
<path d="M3.55909 26.7666C3.23909 26.7666 2.91909 26.6066 2.73242 26.3266C2.42576 25.8733 2.54576 25.2466 2.99909 24.9399L9.57242 20.5266C11.0124 19.5666 12.9991 19.6732 14.3058 20.7799L14.7458 21.1666C15.4124 21.7399 16.5458 21.7399 17.1991 21.1666L22.7458 16.4066C24.1724 15.1932 26.3858 15.1932 27.8124 16.4066L29.9858 18.2732C30.3991 18.6332 30.4524 19.2599 30.0924 19.6866C29.7324 20.0999 29.1058 20.1532 28.6791 19.7932L26.5058 17.9266C25.8391 17.3532 24.7058 17.3532 24.0524 17.9266L18.5058 22.6866C17.0924 23.8999 14.8658 23.8999 13.4391 22.6866L12.9991 22.2999C12.3858 21.7799 11.3724 21.7266 10.6924 22.1932L4.13242 26.6066C3.94576 26.7132 3.74576 26.7666 3.55909 26.7666Z" fill="#BCB8B3"/>
</svg>
