<svg width="32" height="33" viewBox="0 0 32 33" fill="none" xmlns="http://www.w3.org/2000/svg">
<path d="M15.7218 16.3402C15.0018 16.3402 14.2685 16.2068 13.6952 15.9535L5.82849 12.4602C3.82849 11.5668 3.53516 10.3668 3.53516 9.7135C3.53516 9.06016 3.82849 7.86016 5.82849 6.96683L13.6952 3.4735C14.8552 2.9535 16.6018 2.9535 17.7618 3.4735L25.6418 6.96683C27.6285 7.84683 27.9352 9.06016 27.9352 9.7135C27.9352 10.3668 27.6418 11.5668 25.6418 12.4602L17.7618 15.9535C17.1752 16.2202 16.4552 16.3402 15.7218 16.3402ZM15.7218 5.08683C15.2685 5.08683 14.8285 5.1535 14.5085 5.30016L6.64182 8.7935C5.82849 9.16683 5.53516 9.54016 5.53516 9.7135C5.53516 9.88683 5.82849 10.2735 6.62849 10.6335L14.4952 14.1268C15.1352 14.4068 16.2952 14.4068 16.9352 14.1268L24.8152 10.6335C25.6285 10.2735 25.9218 9.88683 25.9218 9.7135C25.9218 9.54016 25.6285 9.1535 24.8152 8.7935L16.9485 5.30016C16.6285 5.16683 16.1752 5.08683 15.7218 5.08683Z" fill="#BCB8B3"/>
<path d="M16 23.2865C15.4933 23.2865 14.9867 23.1798 14.5067 22.9665L5.45333 18.9398C4.08 18.3398 3 16.6732 3 15.1665C3 14.6198 3.45333 14.1665 4 14.1665C4.54667 14.1665 5 14.6198 5 15.1665C5 15.8998 5.6 16.8198 6.26667 17.1265L15.32 21.1532C15.7467 21.3398 16.24 21.3398 16.68 21.1532L25.7333 17.1265C26.4 16.8332 27 15.8998 27 15.1665C27 14.6198 27.4533 14.1665 28 14.1665C28.5467 14.1665 29 14.6198 29 15.1665C29 16.6732 27.92 18.3398 26.5467 18.9532L17.4933 22.9798C17.0133 23.1798 16.5067 23.2865 16 23.2865Z" fill="#BCB8B3"/>
<path d="M16 29.9532C15.4933 29.9532 14.9867 29.8465 14.5067 29.6332L5.45333 25.6065C3.96 24.9398 3 23.4598 3 21.8198C3 21.2732 3.45333 20.8198 4 20.8198C4.54667 20.8198 5 21.2865 5 21.8332C5 22.6732 5.49333 23.4465 6.26667 23.7932L15.32 27.8198C15.7467 28.0065 16.24 28.0065 16.68 27.8198L25.7333 23.7932C26.5067 23.4465 27 22.6865 27 21.8332C27 21.2865 27.4533 20.8332 28 20.8332C28.5467 20.8332 29 21.2865 29 21.8332C29 23.4732 28.04 24.9532 26.5467 25.6198L17.4933 29.6465C17.0133 29.8465 16.5067 29.9532 16 29.9532Z" fill="#BCB8B3"/>
</svg>
