<svg width="32" height="32" viewBox="0 0 32 32" fill="none" xmlns="http://www.w3.org/2000/svg">
<path d="M16.0935 29.3067C14.2135 29.3067 12.3201 28.5867 10.8935 27.16L4.85345 21.12C3.38678 19.6534 2.61345 17.6267 2.70678 15.56L3.02678 8.88002C3.17345 5.69336 5.69345 3.17336 8.89345 3.01336L15.5601 2.69336C17.6401 2.60002 19.6535 3.37336 21.1201 4.84002L27.1601 10.88C30.0268 13.7467 30.0268 18.4267 27.1601 21.2934L21.3068 27.1467C19.8668 28.5867 17.9868 29.3067 16.0935 29.3067ZM6.26678 19.6934L12.3068 25.7334C14.4001 27.8267 17.8001 27.8267 19.8935 25.7334L25.7468 19.88C27.8401 17.7867 27.8401 14.3867 25.7468 12.2934L19.6935 6.26669C18.6268 5.20002 17.1735 4.64002 15.6401 4.70669L8.97345 5.02669C6.81345 5.12002 5.12012 6.81336 5.01345 8.97336L4.69345 15.6534C4.62678 17.1467 5.20012 18.6267 6.26678 19.6934Z" fill="#373430"/>
<path d="M12.6654 17C10.2787 17 8.33203 15.0534 8.33203 12.6667C8.33203 10.28 10.2787 8.33337 12.6654 8.33337C15.052 8.33337 16.9987 10.28 16.9987 12.6667C16.9987 15.0534 15.052 17 12.6654 17ZM12.6654 10.3334C11.3854 10.3334 10.332 11.3867 10.332 12.6667C10.332 13.9467 11.3854 15 12.6654 15C13.9454 15 14.9987 13.9467 14.9987 12.6667C14.9987 11.3867 13.9454 10.3334 12.6654 10.3334Z" fill="#373430"/>
<path d="M17.3326 23.6667C17.0793 23.6667 16.8259 23.5733 16.6259 23.3733C16.2393 22.9867 16.2393 22.3467 16.6259 21.96L21.9593 16.6267C22.3459 16.24 22.9859 16.24 23.3726 16.6267C23.7593 17.0133 23.7593 17.6533 23.3726 18.04L18.0393 23.3733C17.8393 23.5733 17.5859 23.6667 17.3326 23.6667Z" fill="#373430"/>
</svg>
