<svg width="246" height="376" viewBox="0 0 246 376" fill="none" xmlns="http://www.w3.org/2000/svg">
<g opacity="0.5" clip-path="url(#clip0_251_10749)">
<path d="M115.845 276.442C126.803 282.992 146.528 279.587 154.221 269.81C166.028 254.784 166.522 236.038 167.021 217.885C167.111 214.804 167.193 211.622 167.348 208.518L167.431 206.659C167.821 197.918 168.265 188.004 172.144 179.895C175.433 173.018 184.077 157.753 189.774 154.578C193.956 152.253 199.777 153.536 205.414 154.775C209.309 155.632 212.986 156.444 216.21 156.177L216.365 156.163C227.394 155.243 227.394 155.243 231.976 158.464C233.356 159.446 235.098 160.679 237.608 162.247C239.916 163.71 242.339 164.98 244.853 166.047C245.675 166.357 246.458 166.758 247.19 167.242C248.567 168.293 248.965 170.135 250.307 176.244C254.29 194.297 241.485 210.629 229.106 226.42C213.519 246.301 197.409 266.853 215.14 290.797C217.517 294.057 220.338 296.967 223.523 299.444C232.069 305.969 242.253 307.732 253.001 304.483C268.747 299.748 283.406 284.771 289.463 267.219C303.428 226.76 291.98 188.753 277.926 150.139C265.159 115.043 244.727 92.462 226.576 74.0505C225.353 72.7922 224.042 71.6226 222.652 70.5506C214.402 64.2525 207.286 65.455 198.253 66.9612C194.574 67.6507 190.862 68.1465 187.13 68.4465C182.467 68.769 177.627 67.7308 172.942 66.7264C165.355 65.0455 158.119 63.5361 151.672 67.425C138.012 75.6872 142.412 93.6024 146.294 109.391C148.064 116.752 149.789 123.621 149.659 129.136C149.144 151.015 127.982 172.398 108.532 178.644C102.452 180.601 92.978 181.518 82.9592 182.44C66.3159 184.062 47.5118 185.898 38.9705 192.972C34.9739 196.316 33.0762 199.29 33.1452 202.179C33.1973 204.539 34.6312 206.776 37.5587 209.01C42.3415 212.662 50.6923 215.911 59.5349 219.368C70.3355 223.587 82.5756 228.363 91.1451 234.905C94.7465 237.503 97.7504 240.841 99.9549 244.695C102.096 248.733 103.232 253.014 104.347 257.183C106.159 264.047 107.873 270.536 113.834 275.087C114.478 275.577 115.149 276.03 115.845 276.442ZM100.368 244.47C98.1168 240.546 95.0441 237.155 91.3604 234.528C82.7376 227.946 70.4613 223.154 59.6321 218.926C50.8257 215.484 42.5094 212.237 37.7739 208.634C34.9909 206.509 33.6153 204.401 33.5697 202.191C33.5144 199.504 35.3939 196.648 39.2503 193.378C47.6438 186.372 66.4207 184.587 82.951 182.987C93.0122 182.025 102.526 181.103 108.64 179.147C128.249 172.853 149.576 151.284 150.091 129.201C150.219 123.625 148.526 116.683 146.723 109.333C142.88 93.6831 138.516 75.9403 151.896 67.8725C158.172 64.0814 165.294 65.5993 172.846 67.2302C177.558 68.231 182.44 69.2773 187.172 68.9592C190.926 68.633 194.661 68.1139 198.361 67.4038C207.265 65.9079 214.295 64.7237 222.386 70.8999C223.756 71.9597 225.051 73.113 226.262 74.3516C244.375 92.7341 264.805 115.302 277.501 150.271C291.522 188.8 302.952 226.721 289.007 267.075C282.999 284.485 268.467 299.342 252.859 304.038C242.272 307.218 232.232 305.504 223.807 299.072C220.664 296.639 217.877 293.779 215.526 290.575C207.677 279.968 205.867 269.127 209.997 257.411C213.7 246.932 221.725 236.688 229.489 226.785C241.938 210.903 254.836 194.449 250.793 176.207C248.843 167.506 248.773 167.297 245.055 165.672C242.561 164.615 240.158 163.356 237.869 161.905C235.346 160.34 233.64 159.121 232.259 158.14C227.575 154.816 227.575 154.816 216.348 155.729L216.2 155.749C213.043 156.007 209.395 155.205 205.542 154.355C199.818 153.087 193.898 151.777 189.578 154.188C183.775 157.439 175.061 172.795 171.752 179.716C167.83 187.912 167.386 197.874 166.995 206.663L166.912 208.522C166.769 211.61 166.68 214.8 166.593 217.894C166.091 235.973 165.576 254.668 153.908 269.511C146.344 279.135 126.932 282.477 116.145 276.033C115.468 275.626 114.814 275.183 114.185 274.706C108.361 270.259 106.664 263.843 104.862 257.059C103.873 252.699 102.364 248.472 100.368 244.47Z" fill="#FBFBFB"/>
<path d="M137.332 207.841C137.265 207.173 136.956 206.551 136.462 206.095C135.397 205.283 133.62 206.066 130.936 207.249C127.247 209 123.343 210.255 119.324 210.982L117.85 211.227C112.117 212.163 109.493 212.588 109.225 213.681C109.094 214.183 109.454 214.721 110.396 215.441C111.749 216.395 113.161 217.263 114.621 218.041C115.516 218.546 116.374 219.113 117.19 219.738C123.782 224.77 126.463 232.658 128.412 238.413C129.556 241.786 130.468 244.454 131.791 245.464C132.049 245.672 132.353 245.815 132.678 245.88C133.002 245.946 133.338 245.933 133.656 245.842C141.983 243.653 139.025 217.006 137.332 207.841ZM133.526 245.382C133.279 245.452 133.019 245.462 132.767 245.41C132.516 245.358 132.28 245.246 132.081 245.084C130.872 244.161 129.967 241.547 128.862 238.264C126.891 232.444 124.186 224.478 117.48 219.358C116.645 218.722 115.767 218.144 114.852 217.629C113.413 216.858 112.022 216 110.686 215.061C109.926 214.481 109.612 214.073 109.69 213.796C109.884 213.007 113.089 212.497 117.938 211.679L119.407 211.442C123.467 210.712 127.411 209.447 131.137 207.679C133.666 206.557 135.347 205.821 136.184 206.46C136.582 206.844 136.826 207.359 136.87 207.91C138.96 219.313 140.918 243.44 133.526 245.382Z" fill="#FBFBFB"/>
<path d="M132.603 214.256C129.942 212.224 123.32 213.804 121.801 215.794C121.65 215.966 121.539 216.169 121.476 216.389C121.413 216.609 121.399 216.84 121.436 217.066C121.473 217.292 121.56 217.507 121.69 217.695C121.82 217.884 121.99 218.041 122.188 218.156C126.054 221.228 128.308 226.867 129.949 230.992C130.926 233.433 131.621 235.202 132.389 235.788C132.493 235.874 132.613 235.938 132.743 235.975C132.872 236.012 133.008 236.021 133.141 236.001C133.334 235.952 133.513 235.863 133.668 235.738C133.823 235.614 133.95 235.458 134.04 235.281C136.541 231.421 135.182 218.808 133.433 215.25C133.242 214.856 132.957 214.514 132.603 214.256ZM133.45 234.903C133.207 235.222 133.076 235.314 133.009 235.323C132.942 235.332 132.909 235.344 132.772 235.239C132.156 234.769 131.412 232.89 130.547 230.728C128.877 226.532 126.589 220.795 122.586 217.619C121.978 217.155 121.897 216.708 122.299 216.198C123.656 214.421 129.819 212.984 132.192 214.795C132.458 214.992 132.674 215.248 132.825 215.543C134.69 219.358 135.719 231.395 133.45 234.903Z" fill="#FBFBFB"/>
<path d="M175.778 138.197C176.432 138.696 177.657 138.164 179.749 136.48C187.57 130.191 201.72 124.742 215.668 126.76C229.768 128.785 237.486 132.406 241.623 134.349C243.683 135.309 244.71 135.792 245.276 135.492C245.394 135.417 245.493 135.315 245.562 135.194C245.631 135.073 245.67 134.937 245.674 134.797C245.954 133.028 238.939 116.819 222.344 101.903L221.63 101.262C220.139 99.9193 218.85 98.7548 217.534 97.7505C212.926 94.2329 208.236 92.6836 193.985 93.3794C191.735 93.4889 189.512 93.4992 187.371 93.4987C180.721 93.5069 174.985 93.5157 172.81 96.807C171.149 99.3613 171.718 103.582 174.596 110.106C177.767 117.335 176.545 125.873 175.731 131.526C175.238 135.152 174.896 137.524 175.778 138.197ZM174.88 110.034C172.088 103.696 171.5 99.4371 173.082 97.0026C175.173 93.7908 180.83 93.8061 187.383 93.7971C189.531 93.7899 191.755 93.793 194.011 93.676C208.174 92.9851 212.828 94.5188 217.376 97.99C218.683 98.9884 219.965 100.147 221.456 101.489L222.17 102.131C238.354 116.685 245.668 133.086 245.403 134.759C245.346 135.1 245.237 135.197 245.154 135.242C244.708 135.479 243.594 134.952 241.759 134.092C237.613 132.129 229.883 128.524 215.712 126.481C201.542 124.438 187.417 129.966 179.569 136.259C177.656 137.803 176.469 138.364 175.952 137.969C175.192 137.389 175.571 134.842 176.006 131.592C176.858 125.92 178.093 117.319 174.88 110.034Z" fill="#FBFBFB"/>
<path d="M167.262 152.333C167.916 152.832 168.952 152.421 170.6 150.939C180.553 141.986 196.138 130.445 216.453 133.441C223.256 134.528 229.9 136.454 236.23 139.175C237.899 139.716 239.642 139.991 241.395 139.993C243.781 140.131 246.243 140.28 247.748 141.429C247.92 141.559 248.079 141.704 248.223 141.863C248.853 142.647 249.279 143.574 249.46 144.563C249.617 145.609 250.127 146.571 250.905 147.289C251.389 147.667 251.97 147.9 252.581 147.963C253.192 148.025 253.807 147.913 254.356 147.639C254.852 147.371 255.421 147.271 255.978 147.354C256.535 147.437 257.051 147.699 257.447 148.1C258.651 149.187 258.595 150.695 258.537 152.285C258.411 153.384 258.531 154.498 258.888 155.546C259.335 156.505 259.994 157.35 260.817 158.016C261.033 158.221 261.294 158.373 261.58 158.459C261.865 158.545 262.166 158.564 262.46 158.513C262.725 158.416 262.963 158.258 263.154 158.051C263.346 157.844 263.485 157.594 263.561 157.322C264.422 155.155 261.863 150.545 260.15 147.507C259.639 146.6 259.221 145.824 258.971 145.284C256.693 140.385 254.228 135.81 252.101 131.975C243.12 115.804 233.574 102.831 222.928 92.3244C221.883 91.2785 220.774 90.2991 219.607 89.3921C213.797 84.9573 207.359 84.0573 192.048 85.5426C188.291 85.9078 184.686 85.9323 181.203 85.954C173.408 86.0129 167.248 86.058 164.458 89.9019C162.261 92.9368 162.431 98.0906 164.98 106.118C169.102 119.037 167.805 132.892 166.955 142.062C166.462 147.72 166.106 151.451 167.262 152.333ZM165.29 106.043C162.767 98.107 162.589 93.0431 164.728 90.0841C167.431 86.354 173.53 86.3103 181.251 86.2546C184.734 86.2329 188.344 86.2008 192.109 85.8414C207.34 84.3669 213.728 85.253 219.469 89.6355C220.628 90.5374 221.73 91.5109 222.768 92.5505C233.379 103.055 242.918 115.974 251.884 132.134C254.016 135.961 256.489 140.541 258.744 145.424C258.996 145.977 259.435 146.757 259.939 147.658C261.613 150.667 264.14 155.192 263.325 157.238C263.261 157.467 263.147 157.678 262.99 157.856C262.834 158.034 262.638 158.174 262.42 158.266C262.168 158.295 261.912 158.269 261.671 158.191C261.43 158.112 261.208 157.983 261.021 157.812C260.247 157.174 259.626 156.372 259.204 155.463C258.869 154.458 258.758 153.393 258.879 152.342C258.907 150.728 258.964 149.077 257.697 147.93C257.267 147.481 256.704 147.184 256.091 147.082C255.479 146.981 254.85 147.081 254.299 147.367C253.657 147.664 252.936 147.746 252.244 147.601C251.837 147.493 251.455 147.308 251.119 147.055C250.396 146.375 249.925 145.468 249.784 144.485C249.579 143.462 249.122 142.506 248.454 141.703C248.294 141.532 248.12 141.375 247.933 141.234C246.359 140.032 243.85 139.883 241.422 139.737C239.703 139.743 237.993 139.476 236.356 138.947C230.011 136.21 223.35 134.275 216.528 133.185C196.072 130.154 180.411 141.745 170.415 150.725C168.937 152.062 167.984 152.475 167.467 152.081C166.44 151.297 166.805 147.429 167.297 142.071C168.128 132.91 169.42 119.016 165.283 106.037L165.29 106.043Z" fill="#FBFBFB"/>
<path d="M122.612 269.059C125.569 270.725 128.892 271.635 132.284 271.708C135.676 271.781 139.032 271.015 142.054 269.477C147.667 266.634 154.683 259.887 156.181 243.926C156.824 237.061 157.222 229.949 157.642 223.093C158.799 203.447 159.886 184.901 165.86 170.014C172.613 153.173 184.462 144.069 203.151 141.375C219.359 139.061 235.422 142.897 247.292 151.959C256.211 158.767 261.778 167.981 262.964 177.889C264.27 188.791 260.332 200.256 251.555 211.044C249.519 213.553 247.374 216.11 245.1 218.821C237.019 228.446 227.887 239.336 222.299 249.999C215.893 262.237 215.223 272.243 220.15 280.703C222.456 284.801 225.531 288.417 229.205 291.354C232.115 293.627 235.534 295.158 239.167 295.814C242.799 296.469 246.536 296.23 250.053 295.117C262.902 291.403 275.58 277.932 281.647 261.613C294.59 226.576 286.596 193.646 269.406 151.809C256.327 120.069 239.694 100.616 223.662 84.315C222.545 83.169 221.348 82.1028 220.081 81.1241C212.568 75.389 206.096 76.4579 197.861 77.8644C194.503 78.4771 191.116 78.9203 187.713 79.1922C184.211 79.4199 180.695 79.3231 177.21 78.9032C172.563 78.4325 168.544 78.0212 162.101 80.2182C149.313 84.5788 153.109 96.1911 157.166 108.423C159.318 114.874 161.537 121.616 161.135 127.235C158.736 162.665 133.242 183.024 110.211 190.239C103.627 192.304 95.775 193.005 87.4635 193.74C77.2994 194.647 66.7927 195.593 58.4202 199.214C54.824 200.772 52.9801 202.273 52.7898 203.846C52.6739 204.96 53.374 206.155 55.0164 207.409C57.9363 209.638 63.5099 211.97 69.9373 214.665C78.9684 218.458 90.2183 223.176 98.499 229.497C102.419 232.313 105.697 235.93 108.115 240.107C109.894 243.758 111.235 247.605 112.109 251.57C113.758 257.829 115.326 263.737 120.747 267.876C121.346 268.306 121.968 268.701 122.612 269.059ZM108.382 239.962C105.944 235.74 102.623 232.094 98.6461 229.273C90.335 222.928 79.0775 218.205 70.0254 214.407C63.636 211.741 58.0512 209.377 55.1559 207.179C53.6352 206.018 52.9133 204.914 53.0401 203.881C53.2122 202.426 54.9964 200.987 58.4966 199.476C66.8173 195.876 77.3048 194.939 87.442 194.036C95.7727 193.292 103.638 192.589 110.256 190.526C123.433 186.497 135.257 178.95 144.455 168.698C154.589 157.203 160.272 143.248 161.378 127.264C161.775 121.557 159.546 114.844 157.4 108.337C153.413 96.2187 149.631 84.7614 162.152 80.4978C168.53 78.3231 172.52 78.7247 177.141 79.1989C180.643 79.639 184.177 79.7583 187.7 79.5553C191.115 79.2832 194.513 78.8363 197.881 78.2163C206.047 76.8054 212.454 75.7589 219.868 81.4185C221.135 82.397 222.333 83.4606 223.456 84.6018C239.474 100.857 256.067 120.315 269.103 151.986C286.232 193.728 294.249 226.628 281.336 261.58C275.336 277.842 262.729 291.236 249.967 294.931C246.492 296.033 242.8 296.271 239.21 295.625C235.621 294.979 232.241 293.468 229.365 291.223C225.718 288.31 222.668 284.72 220.382 280.652C215.479 272.317 216.185 262.375 222.534 250.226C228.095 239.615 237.233 228.718 245.308 219.101C247.577 216.397 249.727 213.832 251.763 211.323C260.579 200.468 264.541 188.925 263.231 177.949C262.031 167.886 256.429 158.609 247.448 151.753C235.518 142.646 219.377 138.738 203.088 141.111C193.158 142.546 185.24 145.793 178.821 151.049C173.114 155.719 168.777 161.904 165.581 169.969C159.599 184.899 158.502 203.473 157.354 223.138C156.918 230.017 156.523 237.108 155.893 243.971C154.407 259.808 147.477 266.489 141.928 269.297C138.948 270.806 135.641 271.556 132.3 271.48C128.959 271.404 125.688 270.504 122.776 268.86C122.155 268.491 121.556 268.086 120.982 267.647C115.66 263.583 114.113 257.727 112.435 251.506C111.548 247.511 110.188 243.636 108.382 239.962Z" fill="#FBFBFB"/>
<path d="M134.789 263.451C136.298 263.5 137.799 263.224 139.19 262.641C140.582 262.059 141.831 261.184 142.854 260.075C149.463 253.294 151.146 237.342 150.578 225.742C149.873 211.262 149.686 196.214 153.039 184.35C153.559 183.019 154.151 181.718 154.812 180.451C157.784 174.161 162.724 163.654 159.911 161.506C159.633 161.31 159.309 161.19 158.971 161.161C157.272 160.958 155.884 162.05 154.742 164.508C153.811 166.77 153.083 169.111 152.568 171.502C151.914 173.936 151.446 176.126 150.756 177.03C148.964 179.377 147.05 179.55 145.221 179.74C143.675 179.758 142.177 180.276 140.952 181.217C139.177 182.723 138.884 184.651 138.604 186.516C138.323 188.381 138.079 190.01 136.631 191.465C133.962 194.126 116.38 197.64 100.864 200.749C88.0555 203.339 76.9403 205.539 76.0536 206.906C76.0214 206.951 75.9994 207.002 75.9891 207.057C75.9787 207.111 75.9803 207.167 75.9938 207.221C76.197 208.121 77.0572 209.138 78.616 210.328C82.0438 212.681 85.6291 214.795 89.3464 216.657C94.7242 219.56 100.833 222.829 105.555 226.434C109.236 229.244 111.596 231.875 112.765 234.474C113.398 235.883 114.066 237.499 114.776 239.218C117.938 246.837 121.87 256.317 127.839 260.873C129.825 262.446 132.259 263.348 134.789 263.451ZM112.887 234.267C111.705 231.621 109.32 228.959 105.594 226.115C100.857 222.499 94.7384 219.21 89.3473 216.309C85.6409 214.46 82.068 212.356 78.6549 210.009C77.1341 208.848 76.3249 207.906 76.1061 207.042C76.1061 207.042 76.1061 207.042 76.1583 206.974C76.983 205.704 88.5314 203.378 100.788 200.943C116.336 197.824 133.964 194.297 136.693 191.572C138.209 190.061 138.487 188.23 138.753 186.462C139.02 184.694 139.314 182.779 141.003 181.34C142.186 180.439 143.63 179.947 145.118 179.938C147.001 179.741 148.952 179.535 150.877 177.123C151.608 176.166 152.156 174.013 152.765 171.497C153.274 169.125 153.997 166.805 154.928 164.565C156.011 162.231 157.303 161.186 158.856 161.374C159.154 161.398 159.44 161.504 159.682 161.68C162.313 163.688 157.215 174.497 154.484 180.297C153.824 181.587 153.238 182.913 152.728 184.269C149.39 196.145 149.574 211.213 150.305 225.69C150.866 237.236 149.205 253.096 142.661 259.808C141.663 260.886 140.445 261.738 139.09 262.306C137.735 262.874 136.273 263.145 134.803 263.101C132.291 263.003 129.876 262.096 127.92 260.515C122.012 256.004 118.107 246.569 114.948 238.977C114.227 237.32 113.558 235.705 112.887 234.267Z" fill="#FBFBFB"/>
<path d="M139.457 251.929C144.912 246.202 145.694 231.257 145.222 224.923C144.622 216.515 144.459 208.082 144.735 199.658C144.865 194.001 144.936 190.881 143.993 190.162C143.347 189.668 142.352 190.231 140.566 192.113C127.099 206.317 110.696 207.041 100.88 207.492C96.5947 207.682 93.7538 207.809 92.7675 208.943C92.6391 209.108 92.5448 209.297 92.49 209.499C92.4352 209.7 92.4211 209.911 92.4485 210.118C92.5496 211.121 93.2135 212.048 94.5214 213.047C96.4497 214.357 98.4823 215.507 100.599 216.484C104.123 218.16 107.49 220.151 110.657 222.432C115.082 225.81 117.808 229.634 119 234.126C120.679 240.456 124.167 248.515 128.927 252.149C130.449 253.389 132.33 254.104 134.291 254.188C135.264 254.207 136.23 254.015 137.122 253.625C138.014 253.235 138.81 252.657 139.457 251.929ZM129.066 251.966C124.359 248.373 120.902 240.385 119.243 234.107C118.017 229.565 115.275 225.668 110.796 222.25C107.618 219.956 104.236 217.958 100.694 216.281C98.5906 215.313 96.5706 214.173 94.6547 212.872C94.1574 212.58 93.7255 212.188 93.3857 211.722C93.046 211.256 92.8056 210.725 92.6795 210.162C92.6531 209.987 92.664 209.808 92.7115 209.637C92.759 209.466 92.842 209.307 92.9551 209.171C93.8583 208.129 96.8007 207.996 100.862 207.815C110.715 207.379 127.185 206.646 140.73 192.37C142.348 190.661 143.284 190.065 143.778 190.443C144.607 191.075 144.534 194.325 144.407 199.709C144.148 208.123 144.323 216.544 144.931 224.941C145.405 231.241 144.642 246.067 139.254 251.738C138.632 252.443 137.864 253.005 137.005 253.386C136.145 253.767 135.212 253.958 134.272 253.945C132.37 253.857 130.546 253.164 129.066 251.966Z" fill="#FBFBFB"/>
<path d="M252.132 239.045C242.304 250.342 239.458 261.102 240.092 267.428C240.381 270.329 241.408 272.579 242.982 273.78C245.194 275.47 248.187 275.002 251.399 272.465C272.118 256.093 270.791 221.161 269.992 217.714C269.749 216.723 269.368 216.324 268.855 216.413C267.93 216.585 266.704 218.521 264.475 222.024C260.819 228.017 256.691 233.708 252.132 239.045ZM268.946 216.892C268.978 216.885 269.011 216.885 269.043 216.892C269.075 216.9 269.105 216.915 269.13 216.936C269.236 217.017 269.389 217.242 269.53 217.83C270.325 221.25 271.645 255.876 251.117 272.094C248.084 274.49 245.317 274.962 243.279 273.407C241.812 272.286 240.855 270.15 240.571 267.385C239.943 261.16 242.745 250.522 252.494 239.358C257.07 234.006 261.214 228.299 264.886 222.29C266.826 219.228 268.228 217.029 268.946 216.892Z" fill="#FBFBFB"/>
<path d="M246.775 233.874C237.099 244.721 232.253 255.783 233.144 265.021C233.613 269.862 235.648 273.88 238.918 276.376C243.526 279.893 249.647 279.506 254.516 275.398C268.74 263.419 273.736 246.595 275.396 234.629C277.382 220.519 275.563 208.193 273.881 203.302C273.265 201.523 272.778 200.333 272.245 199.927C272.161 199.856 272.062 199.806 271.956 199.779C271.849 199.752 271.738 199.749 271.631 199.77C270.813 199.927 269.915 201.465 268.134 204.54C262.115 215.074 254.952 224.912 246.775 233.874ZM271.667 199.99C271.736 199.977 271.807 199.979 271.874 199.998C271.941 200.016 272.004 200.049 272.057 200.095C272.528 200.455 273.018 201.658 273.599 203.34C277.392 214.373 280.008 253.45 254.298 275.147C249.533 279.166 243.548 279.55 239.054 276.119C235.883 273.698 233.879 269.765 233.428 264.997C232.547 255.839 237.362 244.85 246.992 234.064C255.157 225.078 262.312 215.224 268.329 204.678C270.004 201.869 270.945 200.148 271.636 200.015L271.667 199.99Z" fill="#FBFBFB"/>
<path d="M241.82 231.27C230 244.94 224.103 258.372 225.212 269.074C225.795 274.616 228.164 279.128 232.095 282.129C239.623 287.876 250.633 286.665 259.511 279.103C272.599 267.964 280.148 252.92 281.939 234.383C283.745 215.605 279.08 199.014 276.136 190.794C274.638 186.608 273.982 184.834 273.049 185.047C272.116 185.261 271.486 186.811 269.905 189.955C266.494 196.787 259.37 210.976 241.82 231.27ZM273.122 185.331C273.185 185.319 273.25 185.322 273.311 185.34C273.373 185.358 273.429 185.39 273.476 185.434C274.085 185.898 274.762 187.785 275.889 190.881C285.688 218.278 286.511 255.795 259.344 278.88C250.582 286.338 239.702 287.552 232.288 281.892C228.418 278.938 226.072 274.49 225.507 269.035C224.401 258.407 230.294 245.044 242.048 231.444C259.628 211.126 266.756 196.902 270.187 190.074C271.579 187.194 272.48 185.478 273.122 185.331Z" fill="#FBFBFB"/>
<path d="M190.68 116.831C192.84 118.48 195.958 117.579 199.963 115.708C206.995 112.47 215.023 114.44 219.37 115.51C221.557 116.05 222.399 116.272 222.634 115.742C222.87 115.213 222.559 114.832 220.439 112.973C214.05 107.375 194.035 102.252 188.63 105.77C188.02 106.121 187.548 106.668 187.289 107.321C187.031 107.975 187.001 108.697 187.205 109.37C188.157 113.499 189.213 115.711 190.68 116.831ZM188.962 106.312C193.919 103.113 212.592 107.788 219.321 112.925C219.559 113.107 219.787 113.281 220.005 113.447C220.709 114.016 221.358 114.648 221.945 115.337C221.134 115.219 220.332 115.049 219.543 114.825C215.149 113.755 206.98 111.749 199.728 115.084C195.162 117.187 192.752 117.523 191.109 116.269C189.779 115.253 188.816 113.124 187.893 109.162C187.721 108.634 187.734 108.064 187.929 107.545C188.125 107.025 188.491 106.588 188.968 106.305L188.962 106.312Z" fill="#FBFBFB"/>
<path d="M197.518 121.606C209.89 116.134 221.86 120.067 230.91 124.103C231.804 124.509 232.133 124.172 232.25 123.924C233.235 122.272 228.312 113.838 217.598 105.659C216.389 104.737 215.149 103.79 213.831 102.964C208.708 99.5219 191.959 97.5299 183.971 99.4012C181.889 99.8908 180.567 100.613 180.044 101.535C178.732 103.852 179.877 106.216 181.232 108.933C182.644 111.814 184.266 115.096 183.233 119.067C182.654 121.401 182.911 123.004 184.082 123.898C186.084 125.438 190.603 124.657 197.518 121.606ZM183.702 119.208C184.773 115.062 183.126 111.701 181.67 108.738C180.384 106.134 179.283 103.887 180.455 101.801C180.943 100.972 182.162 100.352 184.073 99.8992C191.987 98.0444 208.526 99.9963 213.567 103.388C214.849 104.246 216.11 105.149 217.312 106.066C227.835 114.1 232.641 122.372 231.839 123.707C231.688 123.904 231.316 123.776 231.091 123.677C221.948 119.605 209.843 115.629 197.303 121.177C186.899 125.772 182.155 125.192 183.71 119.214L183.702 119.208Z" fill="#FBFBFB"/>
<path d="M247.851 263.099C248.254 263.406 248.82 263.406 249.532 263.072C253.131 261.432 260.428 251.81 260.967 242.954C261.037 241.805 260.224 241.341 258.938 241.874C255.521 243.292 248.724 250.904 247.395 260.984C247.245 262.048 247.402 262.756 247.851 263.099ZM259.18 242.504C259.633 242.32 259.997 242.285 260.149 242.402C260.301 242.518 260.295 242.778 260.288 242.929C259.785 251.391 252.632 260.919 249.252 262.462C248.789 262.673 248.439 262.706 248.257 262.567C248.074 262.428 247.941 261.845 248.05 261.088C249.347 251.38 256.012 243.847 259.18 242.504Z" fill="#FBFBFB"/>
<path d="M107.484 285.865C119.786 293.225 143.529 290.075 154.979 282.565C174.866 269.536 174.66 246.662 174.475 224.549C174.284 203.2 174.11 183.043 190.656 171.285C205.066 161.048 224.056 164.077 234.602 172.128C240.283 176.464 243.666 182.232 244.119 188.371C244.658 195.658 241.135 203.426 233.936 210.791C209.18 236.173 184.811 265.998 209.152 298.846C211.795 302.46 214.932 305.684 218.472 308.425C231.619 318.462 245.745 317.346 255.292 314.646C273.584 309.462 290.503 293.747 297.489 275.593C303.378 260.185 305.387 242.403 303.626 221.25C301.017 189.81 290.323 156.333 270.953 118.913L270.113 117.287C261.966 101.536 253.537 85.2566 242.288 71.2363C241.615 70.3985 240.896 69.4648 240.12 68.4636C236.701 64.0506 232.449 58.569 227.871 55.0746C226.296 53.8161 224.519 52.8334 222.616 52.1685C220.107 51.3714 217.958 51.8698 215.888 52.3576C214.303 52.8171 212.652 53.0031 211.003 52.9075C209.268 52.6026 207.558 52.1723 205.884 51.6201C202.555 50.6529 199.119 49.6523 197.511 49.976C194.443 50.6381 194.014 52.1139 193.586 53.5419C193.488 54.11 193.278 54.6528 192.968 55.1382C192.657 55.6236 192.252 56.0418 191.777 56.3682L190.808 57.0227C183.362 62.0477 183.362 62.0477 176.868 59.5184C175.623 59.0368 174.082 58.4377 172.191 57.7628C166.75 55.809 163.328 56.5865 160.01 57.3228C157.329 58.1053 154.507 58.2865 151.746 57.8534L151.533 57.6909C148.796 55.6012 126.994 41.1213 121.507 44.998C120.035 46.0742 119.852 48.2539 120.918 51.5557C121.681 54.3524 123.329 56.8286 125.614 58.6147C126.243 59.0826 126.896 59.5168 127.57 59.9154C128.107 60.2529 128.613 60.5672 129.062 60.9097C130.734 62.1867 132.063 63.9462 130.028 71.4198C129.526 73.2601 129.079 74.7453 128.719 75.9732C126.931 82.0362 126.945 82.1434 130.023 87.5704C130.778 88.9155 131.726 90.5893 132.895 92.7794C136.701 99.9641 135.561 103.949 134.113 108.998C133.123 112.128 132.485 115.358 132.213 118.63C132.027 122.598 132.214 126.576 132.771 130.511C133.539 137.215 134.263 143.549 130.741 150.512C124.616 162.556 111.176 168.258 97.5634 172.627C90.9661 174.742 80.4777 175.065 69.3714 175.409C50.5083 175.998 29.1374 176.655 21.509 186.553C17.1785 192.226 15.288 197.682 15.9879 202.772C16.7279 208.361 20.3643 213.577 27.0862 218.709C36.8419 226.156 51.3301 232.024 64.1216 237.197C74.2251 241.304 82.8876 244.792 87.488 248.303C88.386 248.957 89.185 249.737 89.8602 250.619C93.2904 255.317 94.6584 260.809 95.9953 266.12C97.7565 273.162 99.4117 279.823 105.51 284.478C106.14 284.979 106.799 285.442 107.484 285.865ZM90.3985 250.261C89.6799 249.331 88.834 248.508 87.8858 247.814C83.217 244.25 74.4802 240.717 64.3652 236.626C51.6157 231.46 37.1637 225.608 27.484 218.219C20.9066 213.198 17.3821 208.103 16.6442 202.732C15.991 197.786 17.8133 192.483 22.0507 186.979C29.4878 177.331 50.7018 176.674 69.4251 176.111C80.518 175.769 91.0926 175.427 97.757 173.303C111.514 168.888 125.093 163.113 131.333 150.856C134.956 143.729 134.224 137.293 133.437 130.49C132.869 126.582 132.663 122.63 132.82 118.685C133.094 115.461 133.724 112.277 134.699 109.193C136.188 103.995 137.367 99.8956 133.427 92.4764C132.301 90.2944 131.405 88.6134 130.6 87.2411C127.637 82.0102 127.637 82.0102 129.404 76.1954C129.769 74.96 130.209 73.469 130.704 71.6229C132.655 64.4946 131.741 62.1137 129.505 60.4071C129.006 60.0387 128.489 59.6958 127.955 59.3797C127.344 58.9976 126.704 58.6055 126.058 58.1121C123.869 56.4116 122.296 54.0416 121.581 51.3648C120.589 48.36 120.708 46.4073 121.916 45.5504C126.685 42.1719 147.289 55.3045 151.137 58.2416L151.327 58.3868L151.579 58.1826L151.513 58.5051C154.401 58.9852 157.359 58.8117 160.169 57.9972C163.545 57.2327 166.754 56.4973 171.983 58.3975C173.869 59.08 175.402 59.6733 176.654 60.1607C183.392 62.7802 183.532 62.7547 191.221 57.6019L192.19 56.9474C192.734 56.5782 193.2 56.1039 193.559 55.5524C193.918 55.001 194.163 54.3833 194.28 53.7356C194.664 52.3818 195.004 51.2111 197.682 50.6352C199.115 50.3348 202.614 51.3474 205.704 52.2512C207.419 52.8107 209.172 53.249 210.949 53.5628C212.672 53.6707 214.4 53.4768 216.055 52.99C218.132 52.508 220.09 52.0556 222.427 52.7939C224.265 53.4387 225.98 54.3904 227.5 55.6084C231.967 59.0426 236.194 64.4933 239.612 68.8451C240.388 69.8463 241.115 70.7859 241.787 71.6236C253.002 85.5939 261.415 101.848 269.543 117.56L270.383 119.187C289.716 156.53 300.378 189.923 302.982 221.275C304.735 242.326 302.733 260.005 296.886 275.326C290.007 293.308 273.227 308.841 255.126 313.966C245.738 316.631 231.805 317.714 218.878 307.846C215.381 305.151 212.283 301.976 209.673 298.415C185.649 265.989 209.845 236.405 234.397 211.228C241.739 203.707 245.328 195.773 244.775 188.284C244.328 181.933 240.875 176.051 234.997 171.564C224.26 163.368 204.929 160.282 190.251 170.712C173.425 182.664 173.613 203.938 173.789 224.517C173.984 246.459 174.178 269.143 154.593 281.982C143.299 289.382 119.914 292.505 107.806 285.269C107.143 284.872 106.501 284.438 105.885 283.971C99.9769 279.461 98.3437 272.913 96.6103 265.977C95.289 260.629 93.8986 255.072 90.3985 250.261Z" fill="#FBFBFB"/>
</g>
<defs>
<clipPath id="clip0_251_10749">
<rect width="282.358" height="256.639" fill="white" transform="translate(155.726) rotate(37.3576)"/>
</clipPath>
</defs>
</svg>
