<svg width="48" height="48" viewBox="0 0 48 48" fill="none" xmlns="http://www.w3.org/2000/svg">
<path opacity="0.4" d="M12.9399 15.54C13.0799 15.52 13.2199 15.52 13.3599 15.54C16.4599 15.44 18.9199 12.9 18.9199 9.78C18.9199 6.6 16.3399 4 13.1399 4C9.95992 4 7.35992 6.58 7.35992 9.78C7.37992 12.9 9.83993 15.44 12.9399 15.54Z" fill="#FDC417"/>
<path opacity="0.4" d="M6.4198 29.3998C8.6598 30.8998 11.7998 31.4598 14.6998 31.0798C13.9398 29.4398 13.5398 27.6198 13.5198 25.6998C13.5198 23.6998 13.9598 21.7998 14.7998 20.1398C11.8398 19.7398 8.6998 20.2998 6.4398 21.7998C3.2798 23.8798 3.2798 27.2998 6.4198 29.3998Z" fill="#FDC417"/>
<path opacity="0.4" d="M35.1202 15.54C34.9802 15.52 34.8402 15.52 34.7002 15.54C31.6002 15.44 29.1402 12.9 29.1402 9.78C29.1402 6.6 31.7202 4 34.9202 4C38.1002 4 40.7002 6.58 40.7002 9.78C40.6802 12.9 38.2202 15.44 35.1202 15.54Z" fill="#FDC417"/>
<path opacity="0.4" d="M34.8998 25.7002C34.8998 27.6402 34.4798 29.4802 33.7198 31.1402C36.5398 31.4402 39.4798 30.8402 41.6398 29.4202C44.7998 27.3202 44.7998 23.9002 41.6398 21.8002C39.4998 20.3602 36.4798 19.7802 33.6398 20.1002C34.4598 21.7802 34.8998 23.6802 34.8998 25.7002Z" fill="#FDC417"/>
<path d="M23.7599 31.74C23.9199 31.72 24.0999 31.72 24.2799 31.74C27.9599 31.62 30.8999 28.6 30.8999 24.88C30.8999 21.08 27.8399 18 24.0199 18C20.2199 18 17.1399 21.08 17.1399 24.88C17.1399 28.6 20.0599 31.62 23.7599 31.74Z" fill="#FDC417"/>
<path d="M30.2599 35.8803C33.2799 37.9003 33.2799 41.2203 30.2599 43.2203C26.8199 45.5203 21.1799 45.5203 17.7399 43.2203C14.7199 41.2003 14.7199 37.8803 17.7399 35.8803C21.1599 33.5803 26.7999 33.5803 30.2599 35.8803Z" fill="#FDC417"/>
</svg>
